<svg xmlns="http://www.w3.org/2000/svg" viewBox="0 0 960 520" role="img" aria-labelledby="u04fak_title u04fak_desc" preserveAspectRatio="xMidYMid meet" style="display:block;width:100%;max-width:900px;height:auto;">
  <title id="u04fak_title">Nagib goriva u autocisterni pri kočenju</title>
  <desc id="u04fak_desc">Idealizirani otvoreni pravokutni spremnik na vozilu koje se giba udesno i koči ubrzanjem ulijevo. Gorivo je više uz prednju stijenku. Sve dubine, duljina i nagib u istom su mjerilu; granice modela su prelijevanje i ogoljavanje dna.</desc>
  <defs>
    <marker id="u04fak_aR" markerWidth="7" markerHeight="5" refX="6.5" refY="2.5" orient="auto">
      <path d="M0,0 L0,5 L7,2.5 z" fill="#356b83" />
    </marker>
    <marker id="u04fak_aDim" markerWidth="6" markerHeight="5" refX="6" refY="2.5" orient="auto">
      <path d="M0,0 L0,5 L6,2.5 z" fill="#356b83" />
    </marker>
    <marker id="u04fak_aDimR" markerWidth="6" markerHeight="5" refX="6" refY="2.5" orient="auto-start-reverse">
      <path d="M0,0 L0,5 L6,2.5 z" fill="#356b83" />
    </marker>
    <marker id="u04fak_aOr" markerWidth="6" markerHeight="5" refX="5.5" refY="2.5" orient="auto">
      <path d="M0,0 L0,5 L6,2.5 z" fill="#eadfc5" />
    </marker>
    <marker id="u04fak_aOrR" markerWidth="6" markerHeight="5" refX="0.5" refY="2.5" orient="auto-start-reverse">
      <path d="M0,0 L0,5 L6,2.5 z" fill="#eadfc5" />
    </marker>
    <marker id="u04fak_aV" markerWidth="7" markerHeight="5" refX="6.5" referenceY="2.5" refY="2.5" orient="auto">
      <path d="M0,0 L0,5 L7,2.5 z" fill="#3a4a56" />
    </marker>
    <pattern id="u04fak_hatch" width="7" height="7" patternUnits="userSpaceOnUse" patternTransform="rotate(45)">
      <line x1="0" y1="0" x2="0" y2="7" stroke="#657781" stroke-width="1.8" />
    </pattern>
    <marker id="u04truck_dim" markerWidth="6" markerHeight="5" refX="6" refY="2.5" orient="auto">
      <path d="M0 0 L0 5 L6 2.5 Z" fill="#657781" stroke="none" stroke-width="1.2" />
    </marker>
    <marker id="u04truck_dimL" markerWidth="6" markerHeight="5" refX="6" refY="2.5" orient="auto-start-reverse">
      <path d="M0 0 L0 5 L6 2.5 Z" fill="#657781" stroke="none" stroke-width="1.2" />
    </marker>
  </defs>
  <rect x="60" y="395" width="500" height="14" fill="#3a4a56" stroke="#3a4a56" stroke-width="1.2" />
  <path d="M540,395 L540,360 L568,330 L612,330 L612,395 Z" fill="#d7dee3" stroke="#3a4a56" stroke-width="1.4" />
  <path d="M548,360 L568,338 L604,338 L604,360 Z" fill="#dcebf1" stroke="#3a4a56" stroke-width="1" />
  <rect x="606" y="380" width="10" height="15" fill="#3a4a56" />
  <rect x="606" y="368" width="8" height="8" rx="1" fill="#eadfc5" stroke="#3a4a56" stroke-width="0.8" />
  <circle cx="130" cy="418" r="22" fill="#3a4a56" stroke="#3a4a56" stroke-width="1.5" />
  <circle cx="130" cy="418" r="8" fill="#d7dee3" stroke="#3a4a56" stroke-width="1" />
  <circle cx="430" cy="418" r="22" fill="#3a4a56" stroke="#3a4a56" stroke-width="1.5" />
  <circle cx="430" cy="418" r="8" fill="#d7dee3" stroke="#3a4a56" stroke-width="1" />
  <circle cx="478" cy="418" r="22" fill="#3a4a56" stroke="#3a4a56" stroke-width="1.5" />
  <circle cx="478" cy="418" r="8" fill="#d7dee3" stroke="#3a4a56" stroke-width="1" />
  <circle cx="582" cy="418" r="22" fill="#3a4a56" stroke="#3a4a56" stroke-width="1.5" />
  <circle cx="582" cy="418" r="8" fill="#d7dee3" stroke="#3a4a56" stroke-width="1" />
  <text x="785" y="123" font-family="Arial, Liberation Sans, sans-serif" font-size="13" font-weight="700" text-anchor="middle" fill="#263746">Ključne jednadžbe</text>
  <text x="785" y="156" font-family="Arial, Liberation Sans, sans-serif" font-size="11" text-anchor="middle" fill="#263746">Razlika razina slobodne površine</text>
  <text x="785" y="180" font-family="Arial, Liberation Sans, sans-serif" font-size="15" font-weight="700" text-anchor="middle" fill="#263746">Δh = a·L / g</text>
  <text x="785" y="200" font-family="Arial, Liberation Sans, sans-serif" font-size="11.5" text-anchor="middle" fill="#263746">= 3,8 · 1,20 / 9,81</text>
  <text x="785" y="218" font-family="Arial, Liberation Sans, sans-serif" font-size="13.5" font-weight="700" text-anchor="middle" fill="#263746">≈ 0,465 m</text>
  <text x="785" y="252" font-family="Arial, Liberation Sans, sans-serif" font-size="11" text-anchor="middle" fill="#263746">Visina uz prednju stijenku</text>
  <text x="785" y="274" font-family="Arial, Liberation Sans, sans-serif" font-size="14" font-weight="700" text-anchor="middle" fill="#263746">
    <tspan font-style="italic">h</tspan>
    <tspan baseline-shift="sub" font-size="0.7em">pr</tspan> = h₀ + Δh/2</text>
  <text x="785" y="294" font-family="Arial, Liberation Sans, sans-serif" font-size="13" font-weight="700" text-anchor="middle" fill="#263746">= 0,682 m</text>
  <text x="785" y="326" font-family="Arial, Liberation Sans, sans-serif" font-size="11" text-anchor="middle" fill="#263746">Visina uz stražnju stijenku</text>
  <text x="785" y="348" font-family="Arial, Liberation Sans, sans-serif" font-size="14" font-weight="700" text-anchor="middle" fill="#263746">
    <tspan font-style="italic">h</tspan>
    <tspan baseline-shift="sub" font-size="0.7em">str</tspan> = h₀ − Δh/2</text>
  <text x="785" y="368" font-family="Arial, Liberation Sans, sans-serif" font-size="13" font-weight="700" text-anchor="middle" fill="#263746">= 0,218 m</text>
  <text x="785" y="398" font-family="Arial, Liberation Sans, sans-serif" font-size="11" font-style="italic" text-anchor="middle" fill="#263746">tanθ = a/g ≈ 0,387  →  θ ≈ 21,2°</text>
  <text x="785" y="414" font-family="Arial, Liberation Sans, sans-serif" font-size="11" font-style="italic" text-anchor="middle" fill="#263746">srednja razina h₀ ostaje sačuvana</text>
  <text x="785" y="450" font-family="Arial, Liberation Sans, sans-serif" font-size="11" font-weight="700" text-anchor="middle" fill="#263746">PROVJERA GRANICA</text>
  <text x="710" y="470" font-family="Arial, Liberation Sans, sans-serif" font-size="12" font-weight="700" text-anchor="middle" fill="#263746">
    <tspan font-style="italic">h</tspan>
    <tspan baseline-shift="sub" font-size="0.7em">pr</tspan> &lt; H</text>
  <text x="860" y="470" font-family="Arial, Liberation Sans, sans-serif" font-size="12" font-weight="700" text-anchor="middle" fill="#263746">
    <tspan font-style="italic">h</tspan>
    <tspan baseline-shift="sub" font-size="0.7em">str</tspan> &gt; 0</text>
  <text x="710" y="484" font-family="Arial, Liberation Sans, sans-serif" font-size="10" text-anchor="middle" fill="#263746" transform="translate(0 9)">nema prelijevanja</text>
  <text x="860" y="484" font-family="Arial, Liberation Sans, sans-serif" font-size="10" text-anchor="middle" fill="#263746" transform="translate(0 9)">nema ogoljavanja</text>
  <g>
    <path d="M130 314.7247706422018 L490 175.27522935779814 V380 H130 Z" fill="#eadfc5" stroke="none" stroke-width="1.2" />
    <rect x="118" y="140" width="12" height="252" fill="url(#u04fak_hatch)" stroke="#3a4a56" stroke-width="1.2" />
    <rect x="490" y="140" width="12" height="252" fill="url(#u04fak_hatch)" stroke="#3a4a56" stroke-width="1.2" />
    <rect x="118" y="380" width="384" height="12" fill="url(#u04fak_hatch)" stroke="#3a4a56" stroke-width="1.2" />
    <line x1="130" y1="314.7247706422018" x2="490" y2="175.27522935779814" stroke="#356b83" stroke-width="2.4" />
    <line x1="130" y1="245" x2="490" y2="245" stroke="#657781" stroke-width="1.2" stroke-dasharray="7,5" />
    <text x="310" y="122" font-family="Arial, Liberation Sans, sans-serif" font-size="12" fill="#263746" text-anchor="middle">otvoreni pravokutni model spremnika</text>
    <text x="130" y="104" font-family="Arial, Liberation Sans, sans-serif" font-size="10" fill="#263746" text-anchor="middle">stražnja</text>
    <text x="490" y="104" font-family="Arial, Liberation Sans, sans-serif" font-size="10" fill="#263746" text-anchor="middle">prednja</text>
    <line x1="380" y1="70" x2="280" y2="70" stroke="#356b83" stroke-width="2.6" marker-end="url(#u04fak_aR)" />
    <text x="390" y="74" font-family="Arial, Liberation Sans, sans-serif" font-size="12" fill="#263746" text-anchor="start">a = 3,8 m/s² (kočenje)</text>
    <line x1="130" y1="70" x2="220" y2="70" stroke="#3a4a56" stroke-width="1.6" marker-end="url(#u04fak_aV)" />
    <text x="175" y="58" font-family="Arial, Liberation Sans, sans-serif" font-size="11" fill="#263746" text-anchor="middle">v: smjer vožnje</text>
    <line x1="54" y1="140" x2="118" y2="140" stroke="#657781" stroke-width="0.7" />
    <line x1="54" y1="380" x2="118" y2="380" stroke="#657781" stroke-width="0.7" />
    <line x1="49" y1="140" x2="59" y2="140" stroke="#657781" stroke-width="0.8" />
    <line x1="49" y1="380" x2="59" y2="380" stroke="#657781" stroke-width="0.8" />
    <line x1="54" y1="140" x2="54" y2="380" stroke="#657781" stroke-width="1.2" marker-start="url(#u04truck_dimL)" marker-end="url(#u04truck_dim)" />
    <text x="66" y="264.0" font-family="Arial, Liberation Sans, sans-serif" font-size="11" fill="#263746" text-anchor="start" />
    <text x="36" y="260" font-family="Arial, Liberation Sans, sans-serif" font-size="12" fill="#263746" text-anchor="middle" transform="rotate(-90 36 260)">H = 0,80 m</text>
    <line x1="88" y1="314.7247706422018" x2="118" y2="314.7247706422018" stroke="#657781" stroke-width="0.7" />
    <line x1="88" y1="380" x2="118" y2="380" stroke="#657781" stroke-width="0.7" />
    <line x1="83" y1="314.7247706422018" x2="93" y2="314.7247706422018" stroke="#657781" stroke-width="0.8" />
    <line x1="83" y1="380" x2="93" y2="380" stroke="#657781" stroke-width="0.8" />
    <line x1="88" y1="314.7247706422018" x2="88" y2="380" stroke="#657781" stroke-width="1.2" marker-start="url(#u04truck_dimL)" marker-end="url(#u04truck_dim)" />
    <text x="100" y="351.3623853211009" font-family="Arial, Liberation Sans, sans-serif" font-size="11" fill="#263746" text-anchor="start" />
    <text x="75" y="350" font-family="Arial, Liberation Sans, sans-serif" font-size="10" fill="#263746" text-anchor="middle" transform="rotate(-90 75 350)">h<tspan baseline-shift="sub" font-size="0.7em">str</tspan> = 0,218 m</text>
    <line x1="502" y1="175.27522935779814" x2="522" y2="175.27522935779814" stroke="#657781" stroke-width="0.7" />
    <line x1="502" y1="380" x2="522" y2="380" stroke="#657781" stroke-width="0.7" />
    <line x1="517" y1="175.27522935779814" x2="527" y2="175.27522935779814" stroke="#657781" stroke-width="0.8" />
    <line x1="517" y1="380" x2="527" y2="380" stroke="#657781" stroke-width="0.8" />
    <line x1="522" y1="175.27522935779814" x2="522" y2="380" stroke="#657781" stroke-width="1.2" marker-start="url(#u04truck_dimL)" marker-end="url(#u04truck_dim)" />
    <text x="534" y="281.63761467889907" font-family="Arial, Liberation Sans, sans-serif" font-size="11" fill="#263746" text-anchor="start" />
    <text x="546" y="255" font-family="Arial, Liberation Sans, sans-serif" font-size="10" fill="#263746" text-anchor="middle" transform="rotate(-90 546 255)">h<tspan baseline-shift="sub" font-size="0.7em">pred</tspan> = 0,682 m</text>
    <line x1="130" y1="456" x2="130" y2="466" stroke="#657781" stroke-width="0.8" />
    <line x1="490" y1="456" x2="490" y2="466" stroke="#657781" stroke-width="0.8" />
    <line x1="130" y1="461" x2="490" y2="461" stroke="#657781" stroke-width="1.2" marker-start="url(#u04truck_dimL)" marker-end="url(#u04truck_dim)" />
    <text x="310.0" y="481" font-family="Arial, Liberation Sans, sans-serif" font-size="11" fill="#263746" text-anchor="middle">L = 1,20 m</text>
    <line x1="130" y1="392" x2="130" y2="466" stroke="#657781" stroke-width="0.7" />
    <line x1="490" y1="392" x2="490" y2="466" stroke="#657781" stroke-width="0.7" />
    <line x1="240" y1="175.27522935779814" x2="330" y2="175.27522935779814" stroke="#657781" stroke-width="0.7" stroke-dasharray="3,3" />
    <line x1="240" y1="245" x2="330" y2="245" stroke="#657781" stroke-width="0.7" stroke-dasharray="3,3" />
    <line x1="240" y1="314.7247706422018" x2="330" y2="314.7247706422018" stroke="#657781" stroke-width="0.7" stroke-dasharray="3,3" />
    <line x1="275" y1="175.27522935779814" x2="285" y2="175.27522935779814" stroke="#657781" stroke-width="0.8" />
    <line x1="275" y1="245" x2="285" y2="245" stroke="#657781" stroke-width="0.8" />
    <line x1="280" y1="175.27522935779814" x2="280" y2="245" stroke="#657781" stroke-width="1.2" marker-start="url(#u04truck_dimL)" marker-end="url(#u04truck_dim)" />
    <text x="294" y="214.13761467889907" font-family="Arial, Liberation Sans, sans-serif" font-size="11" fill="#263746" text-anchor="start">Δh/2</text>
    <line x1="275" y1="245" x2="285" y2="245" stroke="#657781" stroke-width="0.8" />
    <line x1="275" y1="314.7247706422018" x2="285" y2="314.7247706422018" stroke="#657781" stroke-width="0.8" />
    <line x1="280" y1="245" x2="280" y2="314.7247706422018" stroke="#657781" stroke-width="1.2" marker-start="url(#u04truck_dimL)" marker-end="url(#u04truck_dim)" />
    <text x="294" y="283.8623853211009" font-family="Arial, Liberation Sans, sans-serif" font-size="11" fill="#263746" text-anchor="start">Δh/2</text>
    <text x="205" y="237" font-family="Arial, Liberation Sans, sans-serif" font-size="10" fill="#263746" text-anchor="middle">h₀ = 0,45 m</text>
    <text x="310" y="357" font-family="Arial, Liberation Sans, sans-serif" font-size="12" fill="#263746" text-anchor="middle">gorivo, ρ = 750 kg/m³</text>
    <line x1="130" y1="314.7247706422018" x2="205" y2="314.7247706422018" stroke="#3a4a56" stroke-width="0.8" stroke-dasharray="3,3" />
    <path d="M160 314.7247706422018 A30 30 0 0 0 157.97456477537753 303.8885477934317" fill="none" stroke="#3a4a56" stroke-width="1.2" />
    <text x="181" y="304.7247706422018" font-family="Arial, Liberation Sans, sans-serif" font-size="12" fill="#263746" text-anchor="middle">θ</text>
    <text x="310" y="505" font-family="Arial, Liberation Sans, sans-serif" font-size="11" fill="#263746" text-anchor="middle">Ustaljeno relativno mirovanje; presjek u jedinstvenom mjerilu.</text>
  </g>
</svg>
