<svg xmlns="http://www.w3.org/2000/svg" viewBox="0 0 960 520" role="img" aria-labelledby="u09egl_title u09egl_desc" preserveAspectRatio="xMidYMid meet" style="display:block;width:100%;max-width:960px;height:auto;">
<title id="u09egl_title">Energija u horizontalnom konfuzoru</title><desc id="u09egl_desc">Pravokutni zračni vod stalne dubine s otvorenim krajevima sužava se s 0,07 na 0,0185 kvadratnih metara. EGL je stalan. Razmaci do HGL-a odgovaraju stvarnim brzinskim visinama 3,340 i 47,819 metara zraka u zajedničkoj skali. Površine su oznake presjeka, a ne linearne kote.</desc>
<defs>
<linearGradient id="u09egl_water" x1="0" y1="0" x2="0" y2="1"><stop offset="0%" stop-color="#aed6f1"/><stop offset="100%" stop-color="#5b9ec9"/></linearGradient>
<linearGradient id="u09egl_oil" x1="0" y1="0" x2="0" y2="1"><stop offset="0%" stop-color="#fde68a"/><stop offset="100%" stop-color="#c8a000"/></linearGradient>
<linearGradient id="u09egl_hdr" x1="0" y1="0" x2="1" y2="0"><stop offset="0%" stop-color="#1a2e42"/><stop offset="100%" stop-color="#1a3a52"/></linearGradient>
<pattern id="u09egl_hatch" width="7" height="7" patternUnits="userSpaceOnUse" patternTransform="rotate(45)"><line x1="0" y1="0" x2="0" y2="7" stroke="#7a8a96" stroke-width="1.8"/></pattern>
<marker id="u09egl_v" markerWidth="7" markerHeight="6" refX="7" refY="3" orient="auto"><path d="M0 0 L7 3 L0 6 Z" fill="#1e8449"/></marker>
<marker id="u09egl_dim" markerWidth="6" markerHeight="5" refX="6" refY="2.5" orient="auto-start-reverse"><path d="M0 0 L6 2.5 L0 5 Z" fill="#b7600c"/></marker>
<marker id="u09egl_dimSmall" markerWidth="3" markerHeight="3" refX="3" refY="1.5" orient="auto-start-reverse"><path d="M0 0 L3 1.5 L0 3 Z" fill="#b7600c"/></marker>
</defs>
<rect width="960" height="520" fill="white"/>
<g font-family="'Segoe UI',Arial,sans-serif" fill="#1a2530">
<line x1="622" y1="28" x2="622" y2="495" stroke="#dce7f0" stroke-width="1" stroke-dasharray="4 5"/>
<text x="38" y="35" font-size="14" fill="#1a2530" text-anchor="start" font-weight="700">Idealni konfuzor: jednaka skala energijskih visina</text>
<line id="u09egl_egl" x1="40" y1="78" x2="596" y2="78" stroke="#c0392b" stroke-width="1.8" stroke-dasharray="7 5"/>
<path id="u09egl_hgl" d="M40 94.70053003 L44 94.70053003 L48 94.70053003 L52 94.70053003 L56 94.70053003 L60 94.70053003 L64 94.70053003 L68 94.70053003 L72 94.70053003 L76 94.70053003 L80 94.70053003 L84 94.70053003 L88 94.70053003 L92 94.70053003 L96 94.70053003 L100 94.70053003 L104 94.70053003 L108 94.70053003 L112 94.70053003 L116 94.70053003 L120 94.70053003 L124 94.70053003 L128 94.70053003 L132 94.70053003 L136 94.70053003 L140 94.70053003 L144 94.70053003 L148 94.70053003 L152 94.70053003 L156 94.70053003 L160 94.70053003 L164 94.70053003 L168 94.70053003 L172 94.70053003 L176 94.70053003 L180 94.70053003 L184 94.70053003 L188 94.70053003 L192 94.70053003 L196 94.70053003 L200 94.70053003 L204 95.33224561 L208 96.00049402 L212 96.70814751 L216 97.45836626 L220 98.25463373 L224 99.10079714 L228 100.00111405 L232 100.96030603 L236 101.98362066 L240 103.07690348 L244 104.24668165 L248 105.50026158 L252 106.84584332 L256 108.29265499 L260 109.85111143 L264 111.53300215 L268 113.35171492 L272 115.32250308 L276 117.46280633 L280 119.79263794 L284 122.33505426 L288 125.11672737 L292 128.16864745 L296 131.52698970 L300 135.23419128 L304 139.34029855 L308 143.90466501 L312 148.99810830 L316 154.70567378 L320 161.13020771 L324 168.39702294 L328 176.66005633 L332 186.11008865 L336 196.98585643 L340 209.58927936 L344 224.30664263 L348 241.63855184 L352 262.24307274 L356 286.99913028 L360 317.10181774 L364 317.10181774 L368 317.10181774 L372 317.10181774 L376 317.10181774 L380 317.10181774 L384 317.10181774 L388 317.10181774 L392 317.10181774 L396 317.10181774 L400 317.10181774 L404 317.10181774 L408 317.10181774 L412 317.10181774 L416 317.10181774 L420 317.10181774 L424 317.10181774 L428 317.10181774 L432 317.10181774 L436 317.10181774 L440 317.10181774 L444 317.10181774 L448 317.10181774 L452 317.10181774 L456 317.10181774 L460 317.10181774 L464 317.10181774 L468 317.10181774 L472 317.10181774 L476 317.10181774 L480 317.10181774 L484 317.10181774 L488 317.10181774 L492 317.10181774 L496 317.10181774 L500 317.10181774 L504 317.10181774 L508 317.10181774 L512 317.10181774 L516 317.10181774 L520 317.10181774 L524 317.10181774 L528 317.10181774 L532 317.10181774 L536 317.10181774 L540 317.10181774 L544 317.10181774 L548 317.10181774 L552 317.10181774 L556 317.10181774 L560 317.10181774 L564 317.10181774 L568 317.10181774 L572 317.10181774 L576 317.10181774 L580 317.10181774 L584 317.10181774 L588 317.10181774 L592 317.10181774 L596 317.10181774" fill="none" stroke="#1565c0" stroke-width="1.8" stroke-dasharray="5 4"/>
<text x="42" y="66" font-size="11" fill="#c0392b" text-anchor="start">EGL = konst.</text>
<text x="42" y="116" font-size="11" fill="#1565c0" text-anchor="start">HGL</text>
<line x1="140" y1="78" x2="150" y2="78" stroke="#b7600c" stroke-width="1.2"/>
<line x1="140" y1="94.70053002512591" x2="150" y2="94.70053002512591" stroke="#b7600c" stroke-width="1.2"/>
<path id="u09egl_head1" d="M145 78 L145 94.70053002512591" fill="none" stroke="#b7600c" stroke-width="1.4" marker-start="url(#u09egl_dimSmall)" marker-end="url(#u09egl_dimSmall)"/>
<line x1="152" y1="86.35026501256296" x2="217" y2="134" stroke="#b7600c" stroke-width="1"/>
<text x="207" y="153" font-size="11" fill="#b7600c" text-anchor="start">v₁²/(2g) = 3,340 m</text>
<line x1="516" y1="78" x2="526" y2="78" stroke="#b7600c" stroke-width="1.2"/>
<line x1="516" y1="317.10181774468083" x2="526" y2="317.10181774468083" stroke="#b7600c" stroke-width="1.2"/>
<path id="u09egl_head2" d="M521 78 L521 317.10181774468083" fill="none" stroke="#b7600c" stroke-width="1.4" marker-start="url(#u09egl_dim)" marker-end="url(#u09egl_dim)"/>
<text x="362" y="193" font-size="12" fill="#b7600c" text-anchor="start">v₂²/(2g)</text>
<text x="362" y="212" font-size="12" fill="#b7600c" text-anchor="start">= 47,819 m</text>
<path id="u09egl_fluid" d="M60 368 H200 L360 398.9 H596 V421.1 H360 L200 452 H60 Z" fill="#eaf3fb" stroke="none" stroke-width="1.8" />
<path id="u09egl_top" d="M60 366 H200 L360 396.9 H596" fill="none" stroke="#3a4a56" stroke-width="4" />
<path id="u09egl_bottom" d="M60 454 H200 L360 423.1 H596" fill="none" stroke="#3a4a56" stroke-width="4" />
<line x1="60" y1="410" x2="596" y2="410" stroke="#7a8a96" stroke-width="1" stroke-dasharray="4 4"/>
<path d="M91 410 L119 410" fill="none" stroke="#1e8449" stroke-width="2.3" marker-end="url(#u09egl_v)"/>
<text x="105.0" y="401" font-size="12" fill="#1e8449" text-anchor="middle">v₁</text>
<path d="M425 410 L531 410" fill="none" stroke="#1e8449" stroke-width="2.3" marker-end="url(#u09egl_v)"/>
<text x="478.0" y="401" font-size="12" fill="#1e8449" text-anchor="middle">v₂</text>
<circle cx="156" cy="410" r="3" fill="#c0392b"/>
<text x="156" y="438" font-size="13" fill="#c0392b" text-anchor="middle" font-weight="700">1</text>
<circle cx="373" cy="410" r="3" fill="#c0392b"/>
<text x="373" y="440" font-size="13" fill="#c0392b" text-anchor="middle" font-weight="700">2</text>
<text x="72" y="356" font-size="12" fill="#1565c0" text-anchor="start">A₁ = 0,070 m²</text>
<text x="437" y="382" font-size="12" fill="#1565c0" text-anchor="start">A₂ = 0,0185 m²</text>
<text x="40" y="482" font-size="11" fill="#1a2530" text-anchor="start">z₁ = z₂; razmaci EGL − HGL: 5 px/m zraka.</text>
<text x="40" y="502" font-size="10" fill="#1a2530" text-anchor="start">Apsolutna visina EGL-a proizvoljna je jer ulazni tlak nije zadan.</text>
<rect x="642" y="42" width="290" height="94" rx="7" fill="white" stroke="#1565c0" stroke-width="1" stroke-opacity="0.65" />
<text x="654" y="62" font-size="13" fill="#1565c0" text-anchor="start" font-weight="700">Bernoulli bez gubitaka</text>
<text x="654" y="85" font-size="12" fill="#1a2530" text-anchor="start">p₁/(ρg) + v₁²/(2g)</text>
<text x="654" y="104" font-size="12" fill="#1a2530" text-anchor="start">= p₂/(ρg) + v₂²/(2g)</text>
<text x="654" y="123" font-size="12" fill="#1a2530" text-anchor="start">Δp = ρ(v₂² − v₁²)/2</text>
<rect x="642" y="150" width="290" height="93" rx="7" fill="white" stroke="#1565c0" stroke-width="1" stroke-opacity="0.65" />
<text x="654" y="170" font-size="13" fill="#1565c0" text-anchor="start" font-weight="700">Kontinuitet</text>
<text x="654" y="193" font-size="12" fill="#1a2530" text-anchor="start">Q = ṁ/ρ = 0,5667 m³/s</text>
<text x="654" y="212" font-size="12" fill="#1a2530" text-anchor="start">v₁ = Q/A₁ = 8,095 m/s</text>
<text x="654" y="231" font-size="12" fill="#1a2530" text-anchor="start">v₂ = Q/A₂ = 30,631 m/s</text>
<rect x="642" y="259" width="290" height="78" rx="7" fill="white" stroke="#c0392b" stroke-width="1" stroke-opacity="0.55" />
<text x="654" y="279" font-size="13" fill="#c0392b" text-anchor="start" font-weight="700">Pad statičkog tlaka</text>
<text x="654" y="302" font-size="12" fill="#1a2530" text-anchor="start">Δp = 523,62 Pa ≈ 0,524 kPa</text>
<rect x="642" y="355" width="290" height="79" rx="7" fill="white" stroke="#1e8449" stroke-width="1" stroke-opacity="0.55" />
<text x="654" y="375" font-size="13" fill="#1e8449" text-anchor="start" font-weight="700">Fizikalna provjera</text>
<text x="654" y="398" font-size="12" fill="#1a2530" text-anchor="start">v₂ &gt; v₁; HGL₂ &lt; HGL₁</text>
<text x="654" y="417" font-size="12" fill="#1a2530" text-anchor="start">Ukupna mehanička energija je ista.</text>
</g>
</svg>
