<svg xmlns="http://www.w3.org/2000/svg" viewBox="0 0 980 420" role="img" aria-labelledby="u11v2mp_title u11v2mp_desc" preserveAspectRatio="xMidYMid meet" style="display:block;width:100%;max-width:980px;height:auto;">
  <title id="u11v2mp_title">U11 Val 2 - kalibracijska mlaznica na prirubnici</title>
  <desc id="u11v2mp_desc">Skica kalibracijske mlaznice s ulaznim promjerom D, izlaznim promjerom d, prirubnicom A-A, silom u vijcima R i mjernom pločom na koju djeluje mlaz silom F_P.</desc>
  <rect width="980" height="420" fill="#fffdf8"/>
  <rect x="32" y="32" width="916" height="356" rx="22" fill="#ffffff" stroke="#d3d9de" stroke-width="2"/>

  <text x="88" y="142" font-family="'Segoe UI',Arial,sans-serif" font-size="20" font-weight="700" fill="#173043">Skica sustava</text>

  <path d="M160 168 L376 168 Q444 168 506 210 L620 210 L620 250 L506 250 Q444 292 376 292 L160 292 Z" fill="#dff1f8" stroke="#173043" stroke-width="5" stroke-linejoin="round"/>
  <rect x="760" y="134" width="18" height="190" fill="#cfd8dc" stroke="#173043" stroke-width="4"/>

  <line x1="620" y1="218" x2="760" y2="218" stroke="#3a87ad" stroke-width="3.5"/>
  <line x1="620" y1="226" x2="760" y2="226" stroke="#3a87ad" stroke-width="3.5"/>
  <line x1="620" y1="234" x2="760" y2="234" stroke="#3a87ad" stroke-width="3.5"/>
  <line x1="620" y1="242" x2="760" y2="242" stroke="#3a87ad" stroke-width="3.5"/>

  <line x1="212" y1="155" x2="212" y2="305" stroke="#173043" stroke-width="7"/>
  <circle cx="196" cy="154" r="7" fill="#173043"/>
  <circle cx="228" cy="154" r="7" fill="#173043"/>
  <circle cx="196" cy="306" r="7" fill="#173043"/>
  <circle cx="228" cy="306" r="7" fill="#173043"/>

  <line x1="268" y1="168" x2="268" y2="292" stroke="#6f7f89" stroke-width="2.5" stroke-dasharray="7 6"/>
  <line x1="620" y1="210" x2="620" y2="250" stroke="#6f7f89" stroke-width="2.5" stroke-dasharray="7 6"/>

  <line x1="208" y1="230" x2="130" y2="230" stroke="#2e7d32" stroke-width="5" marker-end="url(#u11v2mp_arrowGreen)"/>
  <text x="136" y="216" font-family="'Segoe UI',Arial,sans-serif" font-size="18" fill="#173043">R</text>

  <line x1="688" y1="230" x2="758" y2="230" stroke="#c23b22" stroke-width="5" marker-end="url(#u11v2mp_arrowRed)"/>
  <text x="705" y="214" font-family="'Segoe UI',Arial,sans-serif" font-size="18" fill="#173043">F_P</text>

  <line x1="164" y1="206" x2="590" y2="206" stroke="#1976d2" stroke-width="4" marker-end="url(#u11v2mp_arrowBlue)"/>
  <text x="388" y="194" font-family="'Segoe UI',Arial,sans-serif" font-size="18" fill="#173043">Q, v</text>

  <line x1="118" y1="168" x2="118" y2="292" stroke="#c96c35" stroke-width="3" marker-start="url(#u11v2mp_arrowOrangeSmall)" marker-end="url(#u11v2mp_arrowOrange)"/>
  <text x="92" y="236" font-family="'Segoe UI',Arial,sans-serif" font-size="18" fill="#173043">D</text>

  <line x1="654" y1="210" x2="654" y2="250" stroke="#c96c35" stroke-width="3" marker-start="url(#u11v2mp_arrowOrangeSmall)" marker-end="url(#u11v2mp_arrowOrange)"/>
  <text x="662" y="236" font-family="'Segoe UI',Arial,sans-serif" font-size="18" fill="#173043">d</text>

  <text x="184" y="160" font-family="'Segoe UI',Arial,sans-serif" font-size="17" fill="#173043">A-A</text>
  <text x="252" y="160" font-family="'Segoe UI',Arial,sans-serif" font-size="17" fill="#173043">1</text>
  <text x="626" y="202" font-family="'Segoe UI',Arial,sans-serif" font-size="17" fill="#173043">2</text>
  <text x="300" y="226" font-family="'Segoe UI',Arial,sans-serif" font-size="18" fill="#173043">p_M1</text>
  <text x="724" y="330" font-family="'Segoe UI',Arial,sans-serif" font-size="17" fill="#173043">mjerna ploča</text>
  <text x="770" y="126" font-family="'Segoe UI',Arial,sans-serif" font-size="17" fill="#173043">p_a</text>
  <text x="598" y="182" font-family="'Segoe UI',Arial,sans-serif" font-size="17" fill="#173043">p_a</text>
  <text x="180" y="336" font-family="'Segoe UI',Arial,sans-serif" font-size="17" fill="#173043">vijci u prirubnici</text>

  <rect x="812" y="150" width="100" height="108" rx="14" fill="#f7fafb" stroke="#d3d9de" stroke-width="2"/>
  <text x="828" y="180" font-family="'Segoe UI',Arial,sans-serif" font-size="17" font-weight="700" fill="#173043">Logika racuna</text>
  <text x="828" y="208" font-family="'Segoe UI',Arial,sans-serif" font-size="15" fill="#587183">1. sila na ploči</text>
  <text x="828" y="228" font-family="'Segoe UI',Arial,sans-serif" font-size="15" fill="#587183">2. protok i brzine</text>
  <text x="828" y="248" font-family="'Segoe UI',Arial,sans-serif" font-size="15" fill="#587183">3. tlak i R</text>

  <defs>
    <marker id="u11v2mp_arrowBlue" markerWidth="10" markerHeight="10" refX="6" refY="3" orient="auto">
      <path d="M0,0 L0,6 L6,3 z" fill="#1976d2"/>
    </marker>
    <marker id="u11v2mp_arrowGreen" markerWidth="10" markerHeight="10" refX="6" refY="3" orient="auto">
      <path d="M0,0 L0,6 L6,3 z" fill="#2e7d32"/>
    </marker>
    <marker id="u11v2mp_arrowRed" markerWidth="10" markerHeight="10" refX="6" refY="3" orient="auto">
      <path d="M0,0 L0,6 L6,3 z" fill="#c23b22"/>
    </marker>
    <marker id="u11v2mp_arrowOrange" markerWidth="10" markerHeight="10" refX="6" refY="3" orient="auto">
      <path d="M0,0 L0,6 L6,3 z" fill="#c96c35"/>
    </marker>
    <marker id="u11v2mp_arrowOrangeSmall" markerWidth="10" markerHeight="10" refX="4" refY="3" orient="auto-start-reverse">
      <path d="M0,0 L0,6 L6,3 z" fill="#c96c35"/>
    </marker>
  </defs>
</svg>