<svg xmlns="http://www.w3.org/2000/svg" width="447.874pt" height="259.8pt" viewBox="0 0 447.874 259.8" role="img"><title>Dvostruka platforma s ručnom pumpom</title><defs>
    <pattern xmlns="http://www.w3.org/2000/svg" id="u01ch1_hatch" width="7" height="7" patternUnits="userSpaceOnUse" patternTransform="rotate(45)">
      <line x1="0" y1="0" x2="0" y2="7" stroke="#657781" stroke-width="1.8"/>
    </pattern>
    <marker xmlns="http://www.w3.org/2000/svg" id="u01ch1_v" markerWidth="7" markerHeight="6" refX="7" refY="3" orient="auto">
      <path d="M0 0 L7 3 L0 6 Z" fill="#356b83"/>
    </marker>
    <marker xmlns="http://www.w3.org/2000/svg" id="u01ch1_dim" markerWidth="6" markerHeight="5" refX="6" refY="2.5" orient="auto-start-reverse">
      <path d="M0 0 L6 2.5 L0 5 Z" fill="#657781"/>
    </marker>
    <marker xmlns="http://www.w3.org/2000/svg" id="u01ch1_dimSmall" markerWidth="3" markerHeight="3" refX="3" refY="1.5" orient="auto-start-reverse">
      <path d="M0 0 L3 1.5 L0 3 Z" fill="#356b83"/>
    </marker>


      <marker xmlns="http://www.w3.org/2000/svg" id="u01ch1_forceMarker" markerWidth="7" markerHeight="6" refX="7" refY="3" orient="auto">
        <path d="M0 0 L7 3 L0 6 Z" fill="#356b83"/>
      </marker>
      <marker xmlns="http://www.w3.org/2000/svg" id="u01ch1_pressureMarker" markerWidth="7" markerHeight="6" refX="7" refY="3" orient="auto">
        <path d="M0 0 L7 3 L0 6 Z" fill="#356b83"/>
      </marker>
      <marker xmlns="http://www.w3.org/2000/svg" id="u01ch1_reactionMarker" markerWidth="7" markerHeight="6" refX="7" refY="3" orient="auto">
        <path d="M0 0 L7 3 L0 6 Z" fill="#356b83"/>
      </marker>
      <marker xmlns="http://www.w3.org/2000/svg" id="u01ch1_axisMarker" markerWidth="7" markerHeight="6" refX="7" refY="3" orient="auto">
        <path d="M0 0 L7 3 L0 6 Z" fill="#3a4a56"/>
      </marker>


</defs><g font-family="Arial, Liberation Sans, sans-serif"><g transform="translate(0.261 -1.609) scale(0.267)"><g transform="matrix(1 0 0 1 0 0)"><path xmlns="http://www.w3.org/2000/svg" d="M50.0 220 V535 H731.7801930084539 V220" fill="none" stroke="rgb(58, 74, 86)" stroke-width="11px" stroke-linecap="butt" stroke-linejoin="round" stroke-dasharray="none" fill-opacity="1" stroke-opacity="1" opacity="1" marker-start="none" marker-mid="none" marker-end="none" data-source-geometry="0"/></g></g><g transform="translate(0.261 -1.609) scale(0.267)"><g transform="matrix(1 0 0 1 0 0)"><path xmlns="http://www.w3.org/2000/svg" d="M50.0 220 V535 H731.7801930084539 V220" fill="none" stroke="rgb(197, 205, 211)" stroke-width="9px" stroke-linecap="butt" stroke-linejoin="miter" stroke-dasharray="none" fill-opacity="1" stroke-opacity="1" opacity="1" marker-start="none" marker-mid="none" marker-end="none" data-source-geometry="1"/></g></g><g transform="translate(0.261 -1.609) scale(0.267)"><g transform="matrix(1 0 0 1 0 0)"><path xmlns="http://www.w3.org/2000/svg" d="M50.0 220 V535 H731.7801930084539 V220" fill="none" stroke="url(#u01ch1_hatch)" stroke-width="9px" stroke-linecap="butt" stroke-linejoin="miter" stroke-dasharray="none" fill-opacity="1" stroke-opacity="1" opacity="1" marker-start="none" marker-mid="none" marker-end="none" data-source-geometry="2"/></g></g><g transform="translate(0.261 -1.609) scale(0.267)"><g transform="matrix(1 0 0 1 0 0)"><path xmlns="http://www.w3.org/2000/svg" d="M190.0 220 V511 H420.0 V220" fill="none" stroke="rgb(58, 74, 86)" stroke-width="11px" stroke-linecap="butt" stroke-linejoin="round" stroke-dasharray="none" fill-opacity="1" stroke-opacity="1" opacity="1" marker-start="none" marker-mid="none" marker-end="none" data-source-geometry="3"/></g></g><g transform="translate(0.261 -1.609) scale(0.267)"><g transform="matrix(1 0 0 1 0 0)"><path xmlns="http://www.w3.org/2000/svg" d="M190.0 220 V511 H420.0 V220" fill="none" stroke="rgb(197, 205, 211)" stroke-width="9px" stroke-linecap="butt" stroke-linejoin="miter" stroke-dasharray="none" fill-opacity="1" stroke-opacity="1" opacity="1" marker-start="none" marker-mid="none" marker-end="none" data-source-geometry="4"/></g></g><g transform="translate(0.261 -1.609) scale(0.267)"><g transform="matrix(1 0 0 1 0 0)"><path xmlns="http://www.w3.org/2000/svg" d="M190.0 220 V511 H420.0 V220" fill="none" stroke="url(#u01ch1_hatch)" stroke-width="9px" stroke-linecap="butt" stroke-linejoin="miter" stroke-dasharray="none" fill-opacity="1" stroke-opacity="1" opacity="1" marker-start="none" marker-mid="none" marker-end="none" data-source-geometry="5"/></g></g><g transform="translate(0.261 -1.609) scale(0.267)"><g transform="matrix(1 0 0 1 0 0)"><path xmlns="http://www.w3.org/2000/svg" d="M560.0 220 V511 H706.2198069915461 V220" fill="none" stroke="rgb(58, 74, 86)" stroke-width="11px" stroke-linecap="butt" stroke-linejoin="round" stroke-dasharray="none" fill-opacity="1" stroke-opacity="1" opacity="1" marker-start="none" marker-mid="none" marker-end="none" data-source-geometry="6"/></g></g><g transform="translate(0.261 -1.609) scale(0.267)"><g transform="matrix(1 0 0 1 0 0)"><path xmlns="http://www.w3.org/2000/svg" d="M560.0 220 V511 H706.2198069915461 V220" fill="none" stroke="rgb(197, 205, 211)" stroke-width="9px" stroke-linecap="butt" stroke-linejoin="miter" stroke-dasharray="none" fill-opacity="1" stroke-opacity="1" opacity="1" marker-start="none" marker-mid="none" marker-end="none" data-source-geometry="7"/></g></g><g transform="translate(0.261 -1.609) scale(0.267)"><g transform="matrix(1 0 0 1 0 0)"><path xmlns="http://www.w3.org/2000/svg" d="M560.0 220 V511 H706.2198069915461 V220" fill="none" stroke="url(#u01ch1_hatch)" stroke-width="9px" stroke-linecap="butt" stroke-linejoin="miter" stroke-dasharray="none" fill-opacity="1" stroke-opacity="1" opacity="1" marker-start="none" marker-mid="none" marker-end="none" data-source-geometry="8"/></g></g><g transform="translate(0.261 -1.609) scale(0.267)"><g transform="matrix(1 0 0 1 0 0)"><path xmlns="http://www.w3.org/2000/svg" d="M50.0 358 H190.0 V511 H420.0 V358 H560.0 V511 H706.2198069915461 V358 H731.7801930084539 V535 H50.0 Z" fill="rgb(220, 235, 241)" stroke="none" stroke-width="1.8px" stroke-linecap="butt" stroke-linejoin="miter" stroke-dasharray="none" fill-opacity="1" stroke-opacity="1" opacity="1" marker-start="none" marker-mid="none" marker-end="none" data-source-geometry="9"/></g></g><g transform="translate(0.261 -1.609) scale(0.267)"><g transform="matrix(1 0 0 1 0 0)"><path xmlns="http://www.w3.org/2000/svg" d="M50.0 220 V535 H731.7801930084539 V220" fill="none" stroke="rgb(58, 74, 86)" stroke-width="3.058" stroke-linecap="butt" stroke-linejoin="miter" stroke-dasharray="none" fill-opacity="1" stroke-opacity="1" opacity="1" marker-start="none" marker-mid="none" marker-end="none" data-source-geometry="10"/></g></g><g transform="translate(0.261 -1.609) scale(0.267)"><g transform="matrix(1 0 0 1 0 0)"><path xmlns="http://www.w3.org/2000/svg" d="M190.0 220 V511 H420.0 V220" fill="none" stroke="rgb(58, 74, 86)" stroke-width="3.058" stroke-linecap="butt" stroke-linejoin="miter" stroke-dasharray="none" fill-opacity="1" stroke-opacity="1" opacity="1" marker-start="none" marker-mid="none" marker-end="none" data-source-geometry="11"/></g></g><g transform="translate(0.261 -1.609) scale(0.267)"><g transform="matrix(1 0 0 1 0 0)"><path xmlns="http://www.w3.org/2000/svg" d="M560.0 220 V511 H706.2198069915461 V220" fill="none" stroke="rgb(58, 74, 86)" stroke-width="3.058" stroke-linecap="butt" stroke-linejoin="miter" stroke-dasharray="none" fill-opacity="1" stroke-opacity="1" opacity="1" marker-start="none" marker-mid="none" marker-end="none" data-source-geometry="12"/></g></g><g transform="translate(0.261 -1.609) scale(0.267)"><g transform="matrix(1 0 0 1 0 0)"><rect xmlns="http://www.w3.org/2000/svg" x="50.0" y="332" width="140" height="26" rx="0" fill="rgb(215, 222, 227)" stroke="rgb(58, 74, 86)" stroke-width="2.621" stroke-linecap="butt" stroke-linejoin="miter" stroke-dasharray="none" fill-opacity="1" stroke-opacity="1" opacity="1" marker-start="none" marker-mid="none" marker-end="none" data-source-geometry="13"/></g></g><g transform="translate(0.261 -1.609) scale(0.267)"><g transform="matrix(1 0 0 1 0 0)"><rect xmlns="http://www.w3.org/2000/svg" x="110.0" y="160" width="20" height="172" rx="0" fill="rgb(215, 222, 227)" stroke="rgb(58, 74, 86)" stroke-width="2.621" stroke-linecap="butt" stroke-linejoin="miter" stroke-dasharray="none" fill-opacity="1" stroke-opacity="1" opacity="1" marker-start="none" marker-mid="none" marker-end="none" data-source-geometry="14"/></g></g><g transform="translate(0.261 -1.609) scale(0.267)"><g transform="matrix(1 0 0 1 0 0)"><rect xmlns="http://www.w3.org/2000/svg" x="50.0" y="335" width="3" height="20" rx="0" fill="rgb(58, 74, 86)" stroke="none" stroke-width="1.2px" stroke-linecap="butt" stroke-linejoin="miter" stroke-dasharray="none" fill-opacity="1" stroke-opacity="1" opacity="1" marker-start="none" marker-mid="none" marker-end="none" data-source-geometry="15"/></g></g><g transform="translate(0.261 -1.609) scale(0.267)"><g transform="matrix(1 0 0 1 0 0)"><rect xmlns="http://www.w3.org/2000/svg" x="187.0" y="335" width="3" height="20" rx="0" fill="rgb(58, 74, 86)" stroke="none" stroke-width="1.2px" stroke-linecap="butt" stroke-linejoin="miter" stroke-dasharray="none" fill-opacity="1" stroke-opacity="1" opacity="1" marker-start="none" marker-mid="none" marker-end="none" data-source-geometry="16"/></g></g><g transform="translate(0.261 -1.609) scale(0.267)"><g transform="matrix(1 0 0 1 0 0)"><rect xmlns="http://www.w3.org/2000/svg" x="420.0" y="332" width="140" height="26" rx="0" fill="rgb(215, 222, 227)" stroke="rgb(58, 74, 86)" stroke-width="2.621" stroke-linecap="butt" stroke-linejoin="miter" stroke-dasharray="none" fill-opacity="1" stroke-opacity="1" opacity="1" marker-start="none" marker-mid="none" marker-end="none" data-source-geometry="17"/></g></g><g transform="translate(0.261 -1.609) scale(0.267)"><g transform="matrix(1 0 0 1 0 0)"><rect xmlns="http://www.w3.org/2000/svg" x="480.0" y="160" width="20" height="172" rx="0" fill="rgb(215, 222, 227)" stroke="rgb(58, 74, 86)" stroke-width="2.621" stroke-linecap="butt" stroke-linejoin="miter" stroke-dasharray="none" fill-opacity="1" stroke-opacity="1" opacity="1" marker-start="none" marker-mid="none" marker-end="none" data-source-geometry="18"/></g></g><g transform="translate(0.261 -1.609) scale(0.267)"><g transform="matrix(1 0 0 1 0 0)"><rect xmlns="http://www.w3.org/2000/svg" x="420.0" y="335" width="3" height="20" rx="0" fill="rgb(58, 74, 86)" stroke="none" stroke-width="1.2px" stroke-linecap="butt" stroke-linejoin="miter" stroke-dasharray="none" fill-opacity="1" stroke-opacity="1" opacity="1" marker-start="none" marker-mid="none" marker-end="none" data-source-geometry="19"/></g></g><g transform="translate(0.261 -1.609) scale(0.267)"><g transform="matrix(1 0 0 1 0 0)"><rect xmlns="http://www.w3.org/2000/svg" x="557.0" y="335" width="3" height="20" rx="0" fill="rgb(58, 74, 86)" stroke="none" stroke-width="1.2px" stroke-linecap="butt" stroke-linejoin="miter" stroke-dasharray="none" fill-opacity="1" stroke-opacity="1" opacity="1" marker-start="none" marker-mid="none" marker-end="none" data-source-geometry="20"/></g></g><g transform="translate(0.261 -1.609) scale(0.267)"><g transform="matrix(1 0 0 1 0 0)"><rect xmlns="http://www.w3.org/2000/svg" x="706.2198069915461" y="332" width="25.560386016907753" height="26" rx="0" fill="rgb(215, 222, 227)" stroke="rgb(58, 74, 86)" stroke-width="2.621" stroke-linecap="butt" stroke-linejoin="miter" stroke-dasharray="none" fill-opacity="1" stroke-opacity="1" opacity="1" marker-start="none" marker-mid="none" marker-end="none" data-source-geometry="21"/></g></g><g transform="translate(0.261 -1.609) scale(0.267)"><g transform="matrix(1 0 0 1 0 0)"><rect xmlns="http://www.w3.org/2000/svg" x="715.1659420974638" y="180" width="7.6681158050723255" height="152" rx="0" fill="rgb(215, 222, 227)" stroke="rgb(58, 74, 86)" stroke-width="2.621" stroke-linecap="butt" stroke-linejoin="miter" stroke-dasharray="none" fill-opacity="1" stroke-opacity="1" opacity="1" marker-start="none" marker-mid="none" marker-end="none" data-source-geometry="22"/></g></g><g transform="translate(0.261 -1.609) scale(0.267)"><g transform="matrix(1 0 0 1 0 0)"><rect xmlns="http://www.w3.org/2000/svg" x="706.2198069915461" y="335" width="2.5560386016907755" height="20" rx="0" fill="rgb(58, 74, 86)" stroke="none" stroke-width="1.2px" stroke-linecap="butt" stroke-linejoin="miter" stroke-dasharray="none" fill-opacity="1" stroke-opacity="1" opacity="1" marker-start="none" marker-mid="none" marker-end="none" data-source-geometry="23"/></g></g><g transform="translate(0.261 -1.609) scale(0.267)"><g transform="matrix(1 0 0 1 0 0)"><rect xmlns="http://www.w3.org/2000/svg" x="729.224154406763" y="335" width="2.5560386016907755" height="20" rx="0" fill="rgb(58, 74, 86)" stroke="none" stroke-width="1.2px" stroke-linecap="butt" stroke-linejoin="miter" stroke-dasharray="none" fill-opacity="1" stroke-opacity="1" opacity="1" marker-start="none" marker-mid="none" marker-end="none" data-source-geometry="24"/></g></g><g transform="translate(0.261 -1.609) scale(0.267)"><g transform="matrix(1 0 0 1 0 0)"><rect xmlns="http://www.w3.org/2000/svg" x="30" y="132" width="550" height="28" rx="3" fill="rgb(220, 235, 241)" stroke="rgb(53, 107, 131)" stroke-width="2.621" stroke-linecap="butt" stroke-linejoin="miter" stroke-dasharray="none" fill-opacity="1" stroke-opacity="1" opacity="1" marker-start="none" marker-mid="none" marker-end="none" data-source-geometry="25"/></g></g><g transform="translate(0.261 -1.609) scale(0.267)"><g transform="matrix(1 0 0 1 0 0)"><rect xmlns="http://www.w3.org/2000/svg" x="155" y="73" width="300" height="41" rx="14" fill="rgb(220, 235, 241)" stroke="rgb(58, 74, 86)" stroke-width="2.621" stroke-linecap="butt" stroke-linejoin="miter" stroke-dasharray="none" fill-opacity="1" stroke-opacity="1" opacity="1" marker-start="none" marker-mid="none" marker-end="none" data-source-geometry="26"/></g></g><g transform="translate(0.261 -1.609) scale(0.267)"><g transform="matrix(1 0 0 1 0 0)"><rect xmlns="http://www.w3.org/2000/svg" x="172" y="80" width="51" height="23" rx="4" fill="rgb(220, 235, 241)" stroke="rgb(53, 107, 131)" stroke-width="2.621" stroke-linecap="butt" stroke-linejoin="miter" stroke-dasharray="none" fill-opacity="1" stroke-opacity="1" opacity="1" marker-start="none" marker-mid="none" marker-end="none" data-source-geometry="27"/></g></g><g transform="translate(0.261 -1.609) scale(0.267)"><g transform="matrix(1 0 0 1 0 0)"><rect xmlns="http://www.w3.org/2000/svg" x="234" y="80" width="51" height="23" rx="4" fill="rgb(220, 235, 241)" stroke="rgb(53, 107, 131)" stroke-width="2.621" stroke-linecap="butt" stroke-linejoin="miter" stroke-dasharray="none" fill-opacity="1" stroke-opacity="1" opacity="1" marker-start="none" marker-mid="none" marker-end="none" data-source-geometry="28"/></g></g><g transform="translate(0.261 -1.609) scale(0.267)"><g transform="matrix(1 0 0 1 0 0)"><rect xmlns="http://www.w3.org/2000/svg" x="296" y="80" width="51" height="23" rx="4" fill="rgb(220, 235, 241)" stroke="rgb(53, 107, 131)" stroke-width="2.621" stroke-linecap="butt" stroke-linejoin="miter" stroke-dasharray="none" fill-opacity="1" stroke-opacity="1" opacity="1" marker-start="none" marker-mid="none" marker-end="none" data-source-geometry="29"/></g></g><g transform="translate(0.261 -1.609) scale(0.267)"><g transform="matrix(1 0 0 1 0 0)"><rect xmlns="http://www.w3.org/2000/svg" x="358" y="80" width="51" height="23" rx="4" fill="rgb(220, 235, 241)" stroke="rgb(53, 107, 131)" stroke-width="2.621" stroke-linecap="butt" stroke-linejoin="miter" stroke-dasharray="none" fill-opacity="1" stroke-opacity="1" opacity="1" marker-start="none" marker-mid="none" marker-end="none" data-source-geometry="30"/></g></g><g transform="translate(0.261 -1.609) scale(0.267)"><g transform="matrix(1 0 0 1 0 0)"><circle xmlns="http://www.w3.org/2000/svg" cx="201" cy="122" r="10" fill="rgb(58, 74, 86)" stroke="none" stroke-width="1px" stroke-linecap="butt" stroke-linejoin="miter" stroke-dasharray="none" fill-opacity="1" stroke-opacity="1" opacity="1" marker-start="none" marker-mid="none" marker-end="none" data-source-geometry="31"/></g></g><g transform="translate(0.261 -1.609) scale(0.267)"><g transform="matrix(1 0 0 1 0 0)"><circle xmlns="http://www.w3.org/2000/svg" cx="410" cy="122" r="10" fill="rgb(58, 74, 86)" stroke="none" stroke-width="1px" stroke-linecap="butt" stroke-linejoin="miter" stroke-dasharray="none" fill-opacity="1" stroke-opacity="1" opacity="1" marker-start="none" marker-mid="none" marker-end="none" data-source-geometry="32"/></g></g><defs><marker xmlns="http://www.w3.org/2000/svg" id="u01ch1_forceMarker-print-0-33-marker-end" markerWidth="14.977" markerHeight="12.837" refX="7" refY="3" orient="auto" viewBox="0 0 7 6" markerUnits="userSpaceOnUse">
        <path d="M0 0 L7 3 L0 6 Z" fill="#356b83"/>
      </marker></defs><g transform="translate(0.261 -1.609) scale(0.267)"><g transform="matrix(1 0 0 1 0 0)"><path xmlns="http://www.w3.org/2000/svg" d="M305 21 L305 71" fill="none" stroke="rgb(53, 107, 131)" stroke-width="5.023" marker-end="url(#u01ch1_forceMarker-print-0-33-marker-end)" stroke-linecap="butt" stroke-linejoin="miter" stroke-dasharray="none" fill-opacity="1" stroke-opacity="1" opacity="1" marker-start="none" marker-mid="none" data-source-geometry="33"/></g></g><defs><marker xmlns="http://www.w3.org/2000/svg" id="u01ch1_reactionMarker-print-0-35-marker-end" markerWidth="14.977" markerHeight="12.837" refX="7" refY="3" orient="auto" viewBox="0 0 7 6" markerUnits="userSpaceOnUse">
        <path d="M0 0 L7 3 L0 6 Z" fill="#356b83"/>
      </marker></defs><g transform="translate(0.261 -1.609) scale(0.267)"><g transform="matrix(1 0 0 1 0 0)"><path xmlns="http://www.w3.org/2000/svg" d="M120 441 L120 360" fill="none" stroke="rgb(53, 107, 131)" stroke-width="5.023" marker-end="url(#u01ch1_reactionMarker-print-0-35-marker-end)" stroke-linecap="butt" stroke-linejoin="miter" stroke-dasharray="none" fill-opacity="1" stroke-opacity="1" opacity="1" marker-start="none" marker-mid="none" data-source-geometry="35"/></g></g><defs><marker xmlns="http://www.w3.org/2000/svg" id="u01ch1_reactionMarker-print-0-37-marker-end" markerWidth="14.977" markerHeight="12.837" refX="7" refY="3" orient="auto" viewBox="0 0 7 6" markerUnits="userSpaceOnUse">
        <path d="M0 0 L7 3 L0 6 Z" fill="#356b83"/>
      </marker></defs><g transform="translate(0.261 -1.609) scale(0.267)"><g transform="matrix(1 0 0 1 0 0)"><path xmlns="http://www.w3.org/2000/svg" d="M490 441 L490 360" fill="none" stroke="rgb(53, 107, 131)" stroke-width="5.023" marker-end="url(#u01ch1_reactionMarker-print-0-37-marker-end)" stroke-linecap="butt" stroke-linejoin="miter" stroke-dasharray="none" fill-opacity="1" stroke-opacity="1" opacity="1" marker-start="none" marker-mid="none" data-source-geometry="37"/></g></g><g transform="translate(0.261 -1.609) scale(0.267)"><g transform="matrix(1 0 0 1 0 0)"><line xmlns="http://www.w3.org/2000/svg" x1="236" y1="307" x2="171" y2="345" stroke="rgb(101, 119, 129)" stroke-width="2.184" fill="rgb(58, 74, 86)" stroke-linecap="butt" stroke-linejoin="miter" stroke-dasharray="none" fill-opacity="1" stroke-opacity="1" opacity="1" marker-start="none" marker-mid="none" marker-end="none" data-source-geometry="40"/></g></g><g transform="translate(0.261 -1.609) scale(0.267)"><g transform="matrix(1 0 0 1 0 0)"><line xmlns="http://www.w3.org/2000/svg" x1="375" y1="307" x2="434" y2="345" stroke="rgb(101, 119, 129)" stroke-width="2.184" fill="rgb(58, 74, 86)" stroke-linecap="butt" stroke-linejoin="miter" stroke-dasharray="none" fill-opacity="1" stroke-opacity="1" opacity="1" marker-start="none" marker-mid="none" marker-end="none" data-source-geometry="41"/></g></g><g transform="translate(0.261 -1.609) scale(0.267)"><g transform="matrix(1 0 0 1 0 0)"><rect xmlns="http://www.w3.org/2000/svg" x="17" y="128" width="7" height="365" rx="0" fill="url(#u01ch1_hatch)" stroke="rgb(58, 74, 86)" stroke-width="2.621" stroke-linecap="butt" stroke-linejoin="miter" stroke-dasharray="none" fill-opacity="1" stroke-opacity="1" opacity="1" marker-start="none" marker-mid="none" marker-end="none" data-source-geometry="42"/></g></g><g transform="translate(0.261 -1.609) scale(0.267)"><g transform="matrix(1 0 0 1 0 0)"><rect xmlns="http://www.w3.org/2000/svg" x="14" y="138" width="16" height="16" rx="0" fill="rgb(215, 222, 227)" stroke="rgb(58, 74, 86)" stroke-width="2.621" stroke-linecap="butt" stroke-linejoin="miter" stroke-dasharray="none" fill-opacity="1" stroke-opacity="1" opacity="1" marker-start="none" marker-mid="none" marker-end="none" data-source-geometry="43"/></g></g><defs><marker xmlns="http://www.w3.org/2000/svg" id="u01ch1_forceMarker-print-0-45-marker-end" markerWidth="14.977" markerHeight="12.837" refX="7" refY="3" orient="auto" viewBox="0 0 7 6" markerUnits="userSpaceOnUse">
        <path d="M0 0 L7 3 L0 6 Z" fill="#356b83"/>
      </marker></defs><g transform="translate(0.261 -1.609) scale(0.267)"><g transform="matrix(1 0 0 1 0 0)"><path xmlns="http://www.w3.org/2000/svg" d="M719 136 L719 178" fill="none" stroke="rgb(53, 107, 131)" stroke-width="5.023" marker-end="url(#u01ch1_forceMarker-print-0-45-marker-end)" stroke-linecap="butt" stroke-linejoin="miter" stroke-dasharray="none" fill-opacity="1" stroke-opacity="1" opacity="1" marker-start="none" marker-mid="none" data-source-geometry="45"/></g></g><g transform="translate(0.261 -1.609) scale(0.267)"><g transform="matrix(1 0 0 1 0 0)"><line xmlns="http://www.w3.org/2000/svg" x1="684" y1="409" x2="708" y2="350" stroke="rgb(101, 119, 129)" stroke-width="2.184" fill="rgb(58, 74, 86)" stroke-linecap="butt" stroke-linejoin="miter" stroke-dasharray="none" fill-opacity="1" stroke-opacity="1" opacity="1" marker-start="none" marker-mid="none" marker-end="none" data-source-geometry="48"/></g></g><g transform="translate(0.261 -1.609) scale(0.267)"><g transform="matrix(1 0 0 1 0 0)"><line xmlns="http://www.w3.org/2000/svg" x1="420.0" y1="388" x2="560.0" y2="388" stroke="rgb(58, 74, 86)" stroke-width="2.621" stroke-dasharray="4px, 3px" fill="rgb(58, 74, 86)" stroke-linecap="butt" stroke-linejoin="miter" fill-opacity="1" stroke-opacity="1" opacity="1" marker-start="none" marker-mid="none" marker-end="none" data-source-geometry="49"/></g></g><g transform="translate(0.261 -1.609) scale(0.267)"><g transform="matrix(1 0 0 1 0 0)"><line xmlns="http://www.w3.org/2000/svg" x1="606" y1="358" x2="616" y2="358" stroke="rgb(101, 119, 129)" stroke-width="2.621" fill="rgb(58, 74, 86)" stroke-linecap="butt" stroke-linejoin="miter" stroke-dasharray="none" fill-opacity="1" stroke-opacity="1" opacity="1" marker-start="none" marker-mid="none" marker-end="none" data-source-geometry="50"/></g></g><g transform="translate(0.261 -1.609) scale(0.267)"><g transform="matrix(1 0 0 1 0 0)"><line xmlns="http://www.w3.org/2000/svg" x1="606" y1="388" x2="616" y2="388" stroke="rgb(101, 119, 129)" stroke-width="2.621" fill="rgb(58, 74, 86)" stroke-linecap="butt" stroke-linejoin="miter" stroke-dasharray="none" fill-opacity="1" stroke-opacity="1" opacity="1" marker-start="none" marker-mid="none" marker-end="none" data-source-geometry="51"/></g></g><defs><marker xmlns="http://www.w3.org/2000/svg" id="u01ch1_dim-print-0-52-marker-start" markerWidth="14.977" markerHeight="12.481" refX="6" refY="2.5" orient="auto-start-reverse" viewBox="0 0 6 5" markerUnits="userSpaceOnUse">
      <path d="M0 0 L6 2.5 L0 5 Z" fill="#657781"/>
    </marker></defs><defs><marker xmlns="http://www.w3.org/2000/svg" id="u01ch1_dim-print-0-52-marker-end" markerWidth="14.977" markerHeight="12.481" refX="6" refY="2.5" orient="auto-start-reverse" viewBox="0 0 6 5" markerUnits="userSpaceOnUse">
      <path d="M0 0 L6 2.5 L0 5 Z" fill="#657781"/>
    </marker></defs><g transform="translate(0.261 -1.609) scale(0.267)"><g transform="matrix(1 0 0 1 0 0)"><path xmlns="http://www.w3.org/2000/svg" d="M611 358 L611 388" fill="none" stroke="rgb(101, 119, 129)" stroke-width="3.058" marker-start="url(#u01ch1_dim-print-0-52-marker-start)" marker-end="url(#u01ch1_dim-print-0-52-marker-end)" stroke-linecap="butt" stroke-linejoin="miter" stroke-dasharray="none" fill-opacity="1" stroke-opacity="1" opacity="1" marker-mid="none" data-source-geometry="52"/></g></g><g transform="translate(0.261 -1.609) scale(0.267)"><g transform="matrix(1 0 0 1 0 0)"><line xmlns="http://www.w3.org/2000/svg" x1="564.0" y1="358" x2="616" y2="358" stroke="rgb(101, 119, 129)" stroke-width="2.184" fill="rgb(58, 74, 86)" stroke-linecap="butt" stroke-linejoin="miter" stroke-dasharray="none" fill-opacity="1" stroke-opacity="1" opacity="1" marker-start="none" marker-mid="none" marker-end="none" data-source-geometry="54"/></g></g><g transform="translate(0.261 -1.609) scale(0.267)"><g transform="matrix(1 0 0 1 0 0)"><line xmlns="http://www.w3.org/2000/svg" x1="564.0" y1="388" x2="616" y2="388" stroke="rgb(101, 119, 129)" stroke-width="2.184" fill="rgb(58, 74, 86)" stroke-linecap="butt" stroke-linejoin="miter" stroke-dasharray="none" fill-opacity="1" stroke-opacity="1" opacity="1" marker-start="none" marker-mid="none" marker-end="none" data-source-geometry="55"/></g></g><g transform="translate(0.261 -1.609) scale(0.267)"><g transform="matrix(1 0 0 1 0 0)"><line xmlns="http://www.w3.org/2000/svg" x1="706.2198069915461" y1="258" x2="731.7801930084539" y2="258" stroke="rgb(58, 74, 86)" stroke-width="2.621" stroke-dasharray="4px, 3px" fill="rgb(58, 74, 86)" stroke-linecap="butt" stroke-linejoin="miter" fill-opacity="1" stroke-opacity="1" opacity="1" marker-start="none" marker-mid="none" marker-end="none" data-source-geometry="56"/></g></g><g transform="translate(0.261 -1.609) scale(0.267)"><g transform="matrix(1 0 0 1 0 0)"><line xmlns="http://www.w3.org/2000/svg" x1="772" y1="258" x2="782" y2="258" stroke="rgb(101, 119, 129)" stroke-width="2.621" fill="rgb(58, 74, 86)" stroke-linecap="butt" stroke-linejoin="miter" stroke-dasharray="none" fill-opacity="1" stroke-opacity="1" opacity="1" marker-start="none" marker-mid="none" marker-end="none" data-source-geometry="57"/></g></g><g transform="translate(0.261 -1.609) scale(0.267)"><g transform="matrix(1 0 0 1 0 0)"><line xmlns="http://www.w3.org/2000/svg" x1="772" y1="358" x2="782" y2="358" stroke="rgb(101, 119, 129)" stroke-width="2.621" fill="rgb(58, 74, 86)" stroke-linecap="butt" stroke-linejoin="miter" stroke-dasharray="none" fill-opacity="1" stroke-opacity="1" opacity="1" marker-start="none" marker-mid="none" marker-end="none" data-source-geometry="58"/></g></g><defs><marker xmlns="http://www.w3.org/2000/svg" id="u01ch1_dim-print-0-59-marker-start" markerWidth="14.977" markerHeight="12.481" refX="6" refY="2.5" orient="auto-start-reverse" viewBox="0 0 6 5" markerUnits="userSpaceOnUse">
      <path d="M0 0 L6 2.5 L0 5 Z" fill="#657781"/>
    </marker></defs><defs><marker xmlns="http://www.w3.org/2000/svg" id="u01ch1_dim-print-0-59-marker-end" markerWidth="14.977" markerHeight="12.481" refX="6" refY="2.5" orient="auto-start-reverse" viewBox="0 0 6 5" markerUnits="userSpaceOnUse">
      <path d="M0 0 L6 2.5 L0 5 Z" fill="#657781"/>
    </marker></defs><g transform="translate(0.261 -1.609) scale(0.267)"><g transform="matrix(1 0 0 1 0 0)"><path xmlns="http://www.w3.org/2000/svg" d="M777 258 L777 358" fill="none" stroke="rgb(101, 119, 129)" stroke-width="3.058" marker-start="url(#u01ch1_dim-print-0-59-marker-start)" marker-end="url(#u01ch1_dim-print-0-59-marker-end)" stroke-linecap="butt" stroke-linejoin="miter" stroke-dasharray="none" fill-opacity="1" stroke-opacity="1" opacity="1" marker-mid="none" data-source-geometry="59"/></g></g><g transform="translate(0.261 -1.609) scale(0.267)"><g transform="matrix(1 0 0 1 0 0)"><line xmlns="http://www.w3.org/2000/svg" x1="735.7801930084539" y1="258" x2="782" y2="258" stroke="rgb(101, 119, 129)" stroke-width="2.184" fill="rgb(58, 74, 86)" stroke-linecap="butt" stroke-linejoin="miter" stroke-dasharray="none" fill-opacity="1" stroke-opacity="1" opacity="1" marker-start="none" marker-mid="none" marker-end="none" data-source-geometry="62"/></g></g><g transform="translate(0.261 -1.609) scale(0.267)"><g transform="matrix(1 0 0 1 0 0)"><line xmlns="http://www.w3.org/2000/svg" x1="735.7801930084539" y1="358" x2="782" y2="358" stroke="rgb(101, 119, 129)" stroke-width="2.184" fill="rgb(58, 74, 86)" stroke-linecap="butt" stroke-linejoin="miter" stroke-dasharray="none" fill-opacity="1" stroke-opacity="1" opacity="1" marker-start="none" marker-mid="none" marker-end="none" data-source-geometry="63"/></g></g><g transform="translate(87.062 10.677)"><text data-source-text="1" x="0" y="0" text-anchor="start" font-size="9.5" font-weight="400" fill="rgb(38, 55, 70)">G = 27,6 kN</text></g><g transform="translate(173.864 32.044)"><text data-source-text="6" x="0" y="0" text-anchor="middle" font-size="9.5" font-weight="400" fill="rgb(38, 55, 70)">Fₚ = 460 N</text></g><g transform="translate(83.056 46.199)"><text data-source-text="5" x="0" y="0" text-anchor="middle" font-size="9" font-weight="400" fill="rgb(38, 55, 70)">Platforma i cilindri: isti pomak</text></g><g transform="translate(207.992 60.354)"><text data-source-text="9" x="0" y="0" text-anchor="middle" font-size="9.5" font-weight="400" fill="rgb(38, 55, 70)">sₕ</text></g><g transform="translate(81.721 79.851)"><text data-source-text="4" x="0" y="0" text-anchor="middle" font-size="9.5" font-weight="400" fill="rgb(38, 55, 70)">A<tspan font-size="9" font-weight="400" font-style="normal" fill="rgb(38, 55, 70)">L</tspan> = 150 cm² svaki</text></g><g transform="translate(154.634 88.398)"><text data-source-text="8" x="0" y="0" text-anchor="start" font-size="9.5" font-weight="400" fill="rgb(38, 55, 70)">s<tspan font-size="9" font-weight="400" font-style="normal" fill="rgb(38, 55, 70)">L</tspan> = 25 mm ↑</text></g><g transform="translate(172.926 100.416)"><text data-source-text="10" x="0" y="0" text-anchor="start" font-size="9" font-weight="400" fill="rgb(38, 55, 70)">180 mm ↓</text></g><g transform="translate(173.864 113.361)"><text data-source-text="7" x="0" y="0" text-anchor="middle" font-size="9.5" font-weight="400" fill="rgb(38, 55, 70)">Aₚ = 5 cm²</text></g><g transform="translate(32.311 126.056)"><text data-source-text="2" x="0" y="0" text-anchor="middle" font-size="9.5" font-weight="400" fill="rgb(38, 55, 70)">F<tspan font-size="9" font-weight="400" font-style="normal" fill="rgb(38, 55, 70)">L</tspan> = 13,8 kN</text></g><g transform="translate(131.131 126.056)"><text data-source-text="3" x="0" y="0" text-anchor="middle" font-size="9.5" font-weight="400" fill="rgb(38, 55, 70)">F<tspan font-size="9" font-weight="400" font-style="normal" fill="rgb(38, 55, 70)">L</tspan> = 13,8 kN</text></g><g transform="translate(86.795 138.876)"><text data-source-text="11" x="0" y="0" text-anchor="middle" font-size="9.5" font-weight="600" fill="rgb(38, 55, 70)">p = 0,92 MPa; isti fluid</text></g><g transform="translate(108.469 157.78)"><text data-source-text="28" x="0" y="0" text-anchor="middle" font-size="9" font-weight="400" fill="rgb(38, 55, 70)">Prikazan tlačni potez; ventili i spremnik nisu</text>
<text data-source-text="28" x="0" y="12" text-anchor="middle" font-size="9" font-weight="400" fill="rgb(38, 55, 70)">prikazani. Hodovi imaju zasebne skale.</text></g><g transform="translate(108.469 184.78)"><text data-source-text="29" x="0" y="0" text-anchor="middle" font-size="9" font-weight="400" fill="rgb(38, 55, 70)">Sile djeluju na označeno tijelo; pomaci i kote imaju</text>
<text data-source-text="29" x="0" y="12" text-anchor="middle" font-size="9" font-weight="400" fill="rgb(38, 55, 70)">zasebne oznake.</text></g><g transform="translate(230.937 0)"><g transform="translate(-690.731 -61.7) scale(0.9)"><g transform="matrix(1 0 0 1 816 65)"><rect xmlns="http://www.w3.org/2000/svg" x="0" y="21" width="144" height="9" rx="0" fill="rgb(255, 255, 255)" stroke="none" stroke-width="1.2px" stroke-linecap="butt" stroke-linejoin="miter" stroke-dasharray="none" fill-opacity="1" stroke-opacity="1" opacity="1" marker-start="none" marker-mid="none" marker-end="none" data-source-geometry="65"/></g></g><g transform="translate(108.469 15.7)"><text data-source-text="12" x="0" y="0" text-anchor="middle" font-size="9.5" font-weight="600" fill="rgb(38, 55, 70)">Račun</text></g><g transform="translate(108.469 40.3)"><text data-source-text="13" x="0" y="0" text-anchor="middle" font-size="9" font-weight="400" fill="rgb(38, 55, 70)">Tlak</text></g><g transform="translate(108.469 55.3)"><text data-source-text="14" x="0" y="0" text-anchor="middle" font-size="9" font-weight="600" fill="rgb(38, 55, 70)">p = Fₚ/Aₚ</text></g><g transform="translate(108.469 70.3)"><text data-source-text="15" x="0" y="0" text-anchor="middle" font-size="9" font-weight="600" fill="rgb(38, 55, 70)">= 0,92 MPa</text></g><g transform="translate(108.469 85.3)"><text data-source-text="16" x="0" y="0" text-anchor="middle" font-size="9" font-weight="400" fill="rgb(38, 55, 70)">Dva cilindra</text></g><g transform="translate(108.469 100.3)"><text data-source-text="17" x="0" y="0" text-anchor="middle" font-size="9" font-weight="600" fill="rgb(38, 55, 70)">G = 2pA<tspan font-size="9" font-weight="700" font-style="normal" fill="rgb(38, 55, 70)">L</tspan></text></g><g transform="translate(108.469 115.3)"><text data-source-text="18" x="0" y="0" text-anchor="middle" font-size="9" font-weight="600" fill="rgb(38, 55, 70)">= 27,6 kN</text></g><g transform="translate(108.469 130.3)"><text data-source-text="19" x="0" y="0" text-anchor="middle" font-size="9" font-weight="400" fill="rgb(38, 55, 70)">Zbroj hodova</text></g><g transform="translate(108.469 145.3)"><text data-source-text="20" x="0" y="0" text-anchor="middle" font-size="9" font-weight="600" fill="rgb(38, 55, 70)">sₚ = 1,50 m</text></g><g transform="translate(108.469 160.3)"><text data-source-text="21" x="0" y="0" text-anchor="middle" font-size="9" font-weight="600" fill="rgb(38, 55, 70)">1,50 / 0,180 ≈ 8,33</text></g><g transform="translate(108.469 175.3)"><text data-source-text="22" x="0" y="0" text-anchor="middle" font-size="9" font-weight="400" fill="rgb(38, 55, 70)">Puni potezi</text></g><g transform="translate(108.469 190.3)"><text data-source-text="23" x="0" y="0" text-anchor="middle" font-size="9" font-weight="600" fill="rgb(38, 55, 70)">n = 9</text></g><g transform="translate(108.469 205.3)"><text data-source-text="24" x="0" y="0" text-anchor="middle" font-size="9" font-weight="600" fill="rgb(38, 55, 70)">podizaj 27 mm</text></g><g transform="translate(108.469 220.3)"><text data-source-text="25" x="0" y="0" text-anchor="middle" font-size="9" font-weight="400" fill="rgb(38, 55, 70)">Točno 25 mm</text></g><g transform="translate(108.469 235.3)"><text data-source-text="26" x="0" y="0" text-anchor="middle" font-size="9" font-weight="600" fill="rgb(38, 55, 70)">8 punih + 60 mm</text></g><g transform="translate(108.469 250.3)"><text data-source-text="27" x="0" y="0" text-anchor="middle" font-size="9" font-weight="600" fill="rgb(38, 55, 70)">zadnji je djelomičan</text></g></g></g></svg>
