<svg xmlns="http://www.w3.org/2000/svg" width="447.874pt" height="274.473pt" viewBox="0 0 447.874 274.473" role="img"><title>Viskoznost i kapilarnost</title><defs>
    <pattern xmlns="http://www.w3.org/2000/svg" id="u02fup_hatch" width="7" height="7" patternUnits="userSpaceOnUse" patternTransform="rotate(45)">
      <line x1="0" y1="0" x2="0" y2="7" stroke="#657781" stroke-width="1.8"/>
    </pattern>
    <marker xmlns="http://www.w3.org/2000/svg" id="u02fup_v" markerWidth="7" markerHeight="6" refX="7" refY="3" orient="auto">
      <path d="M0 0 L7 3 L0 6 Z" fill="#356b83"/>
    </marker>
    <marker xmlns="http://www.w3.org/2000/svg" id="u02fup_dim" markerWidth="6" markerHeight="5" refX="6" refY="2.5" orient="auto-start-reverse">
      <path d="M0 0 L6 2.5 L0 5 Z" fill="#657781"/>
    </marker>
    <marker xmlns="http://www.w3.org/2000/svg" id="u02fup_dimSmall" markerWidth="3" markerHeight="3" refX="3" refY="1.5" orient="auto-start-reverse">
      <path d="M0 0 L3 1.5 L0 3 Z" fill="#356b83"/>
    </marker>


      <marker xmlns="http://www.w3.org/2000/svg" id="u02fup_forceMarker" markerWidth="7" markerHeight="6" refX="7" refY="3" orient="auto">
        <path d="M0 0 L7 3 L0 6 Z" fill="#356b83"/>
      </marker>
      <marker xmlns="http://www.w3.org/2000/svg" id="u02fup_pressureMarker" markerWidth="7" markerHeight="6" refX="7" refY="3" orient="auto">
        <path d="M0 0 L7 3 L0 6 Z" fill="#356b83"/>
      </marker>
      <marker xmlns="http://www.w3.org/2000/svg" id="u02fup_reactionMarker" markerWidth="7" markerHeight="6" refX="7" refY="3" orient="auto">
        <path d="M0 0 L7 3 L0 6 Z" fill="#356b83"/>
      </marker>
      <marker xmlns="http://www.w3.org/2000/svg" id="u02fup_axisMarker" markerWidth="7" markerHeight="6" refX="7" refY="3" orient="auto">
        <path d="M0 0 L7 3 L0 6 Z" fill="#3a4a56"/>
      </marker>



</defs><g font-family="Arial, Liberation Sans, sans-serif"><g transform="translate(108.469 13.5)"><text data-source-text="3" x="0" y="0" text-anchor="middle" font-size="9.5" font-weight="600" fill="rgb(38, 55, 70)">VISKOZNOST — otpor smicanju</text></g><g transform="translate(108.469 28.5)"><text data-source-text="10" x="0" y="0" text-anchor="middle" font-size="9.5" font-weight="400" fill="rgb(38, 55, 70)">Stacionarni Couetteov sloj; bez gradijenta tlaka</text></g><g transform="translate(108.469 43.5)"><text data-source-text="4" x="0" y="0" text-anchor="middle" font-size="9.5" font-weight="400" fill="rgb(38, 55, 70)">v</text></g><g transform="translate(-17.792 -29.664) scale(0.532)"><g transform="matrix(1 0 0 1 0 0)"><rect xmlns="http://www.w3.org/2000/svg" x="75" y="191" width="342" height="146" rx="0" fill="rgb(234, 223, 197)" stroke="none" stroke-width="1.2px" stroke-linecap="butt" stroke-linejoin="miter" stroke-dasharray="none" fill-opacity="1" stroke-opacity="1" opacity="1" marker-start="none" marker-mid="none" marker-end="none" data-source-geometry="3"/></g></g><g transform="translate(-17.792 -29.664) scale(0.532)"><g transform="matrix(1 0 0 1 0 0)"><rect xmlns="http://www.w3.org/2000/svg" x="75" y="175" width="342" height="16" rx="0" fill="rgb(215, 222, 227)" stroke="rgb(58, 74, 86)" stroke-width="1.317" stroke-linecap="butt" stroke-linejoin="miter" stroke-dasharray="none" fill-opacity="1" stroke-opacity="1" opacity="1" marker-start="none" marker-mid="none" marker-end="none" data-source-geometry="4"/></g></g><g transform="translate(-17.792 -29.664) scale(0.532)"><g transform="matrix(1 0 0 1 0 0)"><rect xmlns="http://www.w3.org/2000/svg" x="75" y="337" width="342" height="14" rx="0" fill="url(#u02fup_hatch)" stroke="rgb(58, 74, 86)" stroke-width="1.317" stroke-linecap="butt" stroke-linejoin="miter" stroke-dasharray="none" fill-opacity="1" stroke-opacity="1" opacity="1" marker-start="none" marker-mid="none" marker-end="none" data-source-geometry="5"/></g></g><g transform="translate(-17.792 -29.664) scale(0.532)"><g transform="matrix(1 0 0 1 0 0)"><line xmlns="http://www.w3.org/2000/svg" x1="116.03999999999999" y1="337" x2="116.03999999999999" y2="191" stroke="rgb(53, 107, 131)" stroke-width="1.097" stroke-dasharray="3px, 3px" fill="rgb(58, 74, 86)" stroke-linecap="butt" stroke-linejoin="miter" fill-opacity="1" stroke-opacity="1" opacity="1" marker-start="none" marker-mid="none" marker-end="none" data-source-geometry="6"/></g></g><g transform="translate(-17.792 -29.664) scale(0.532)"><g transform="matrix(1 0 0 1 0 0)"><line xmlns="http://www.w3.org/2000/svg" x1="116.03999999999999" y1="337" x2="310.97999999999996" y2="191" stroke="rgb(53, 107, 131)" stroke-width="1.866" fill="rgb(58, 74, 86)" stroke-linecap="butt" stroke-linejoin="miter" stroke-dasharray="none" fill-opacity="1" stroke-opacity="1" opacity="1" marker-start="none" marker-mid="none" marker-end="none" data-source-geometry="7"/></g></g><defs><marker xmlns="http://www.w3.org/2000/svg" id="u02fup_axisMarker-print-0-8-marker-end" markerWidth="7.526" markerHeight="6.451" refX="7" refY="3" orient="auto" viewBox="0 0 7 6" markerUnits="userSpaceOnUse">
        <path d="M0 0 L7 3 L0 6 Z" fill="#3a4a56"/>
      </marker></defs><g transform="translate(-17.792 -29.664) scale(0.532)"><g transform="matrix(1 0 0 1 0 0)"><path xmlns="http://www.w3.org/2000/svg" d="M116.03999999999999 307.8 L155.028 307.8" fill="none" stroke="rgb(58, 74, 86)" stroke-width="2.524" marker-end="url(#u02fup_axisMarker-print-0-8-marker-end)" stroke-linecap="butt" stroke-linejoin="miter" stroke-dasharray="none" fill-opacity="1" stroke-opacity="1" opacity="1" marker-start="none" marker-mid="none" data-source-geometry="8"/></g></g><defs><marker xmlns="http://www.w3.org/2000/svg" id="u02fup_axisMarker-print-0-9-marker-end" markerWidth="7.526" markerHeight="6.451" refX="7" refY="3" orient="auto" viewBox="0 0 7 6" markerUnits="userSpaceOnUse">
        <path d="M0 0 L7 3 L0 6 Z" fill="#3a4a56"/>
      </marker></defs><g transform="translate(-17.792 -29.664) scale(0.532)"><g transform="matrix(1 0 0 1 0 0)"><path xmlns="http://www.w3.org/2000/svg" d="M116.03999999999999 278.6 L194.01599999999996 278.6" fill="none" stroke="rgb(58, 74, 86)" stroke-width="2.524" marker-end="url(#u02fup_axisMarker-print-0-9-marker-end)" stroke-linecap="butt" stroke-linejoin="miter" stroke-dasharray="none" fill-opacity="1" stroke-opacity="1" opacity="1" marker-start="none" marker-mid="none" data-source-geometry="9"/></g></g><defs><marker xmlns="http://www.w3.org/2000/svg" id="u02fup_axisMarker-print-0-10-marker-end" markerWidth="7.526" markerHeight="6.451" refX="7" refY="3" orient="auto" viewBox="0 0 7 6" markerUnits="userSpaceOnUse">
        <path d="M0 0 L7 3 L0 6 Z" fill="#3a4a56"/>
      </marker></defs><g transform="translate(-17.792 -29.664) scale(0.532)"><g transform="matrix(1 0 0 1 0 0)"><path xmlns="http://www.w3.org/2000/svg" d="M116.03999999999999 249.4 L233.00399999999996 249.4" fill="none" stroke="rgb(58, 74, 86)" stroke-width="2.524" marker-end="url(#u02fup_axisMarker-print-0-10-marker-end)" stroke-linecap="butt" stroke-linejoin="miter" stroke-dasharray="none" fill-opacity="1" stroke-opacity="1" opacity="1" marker-start="none" marker-mid="none" data-source-geometry="10"/></g></g><defs><marker xmlns="http://www.w3.org/2000/svg" id="u02fup_axisMarker-print-0-11-marker-end" markerWidth="7.526" markerHeight="6.451" refX="7" refY="3" orient="auto" viewBox="0 0 7 6" markerUnits="userSpaceOnUse">
        <path d="M0 0 L7 3 L0 6 Z" fill="#3a4a56"/>
      </marker></defs><g transform="translate(-17.792 -29.664) scale(0.532)"><g transform="matrix(1 0 0 1 0 0)"><path xmlns="http://www.w3.org/2000/svg" d="M116.03999999999999 220.2 L271.99199999999996 220.2" fill="none" stroke="rgb(58, 74, 86)" stroke-width="2.524" marker-end="url(#u02fup_axisMarker-print-0-11-marker-end)" stroke-linecap="butt" stroke-linejoin="miter" stroke-dasharray="none" fill-opacity="1" stroke-opacity="1" opacity="1" marker-start="none" marker-mid="none" data-source-geometry="11"/></g></g><defs><marker xmlns="http://www.w3.org/2000/svg" id="u02fup_axisMarker-print-0-12-marker-end" markerWidth="7.526" markerHeight="6.451" refX="7" refY="3" orient="auto" viewBox="0 0 7 6" markerUnits="userSpaceOnUse">
        <path d="M0 0 L7 3 L0 6 Z" fill="#3a4a56"/>
      </marker></defs><g transform="translate(-17.792 -29.664) scale(0.532)"><g transform="matrix(1 0 0 1 0 0)"><path xmlns="http://www.w3.org/2000/svg" d="M177.6 148 L280.2 148" fill="none" stroke="rgb(58, 74, 86)" stroke-width="2.524" marker-end="url(#u02fup_axisMarker-print-0-12-marker-end)" stroke-linecap="butt" stroke-linejoin="miter" stroke-dasharray="none" fill-opacity="1" stroke-opacity="1" opacity="1" marker-start="none" marker-mid="none" data-source-geometry="12"/></g></g><defs><marker xmlns="http://www.w3.org/2000/svg" id="u02fup_reactionMarker-print-0-14-marker-end" markerWidth="7.526" markerHeight="6.451" refX="7" refY="3" orient="auto" viewBox="0 0 7 6" markerUnits="userSpaceOnUse">
        <path d="M0 0 L7 3 L0 6 Z" fill="#356b83"/>
      </marker></defs><g transform="translate(-17.792 -29.664) scale(0.532)"><g transform="matrix(1 0 0 1 0 0)"><path xmlns="http://www.w3.org/2000/svg" d="M181.01999999999998 191 L88.67999999999998 191" fill="none" stroke="rgb(53, 107, 131)" stroke-width="2.524" marker-end="url(#u02fup_reactionMarker-print-0-14-marker-end)" stroke-linecap="butt" stroke-linejoin="miter" stroke-dasharray="none" fill-opacity="1" stroke-opacity="1" opacity="1" marker-start="none" marker-mid="none" data-source-geometry="14"/></g></g><defs><marker xmlns="http://www.w3.org/2000/svg" id="u02fup_forceMarker-print-0-16-marker-end" markerWidth="7.526" markerHeight="6.451" refX="7" refY="3" orient="auto" viewBox="0 0 7 6" markerUnits="userSpaceOnUse">
        <path d="M0 0 L7 3 L0 6 Z" fill="#356b83"/>
      </marker></defs><g transform="translate(-17.792 -29.664) scale(0.532)"><g transform="matrix(1 0 0 1 0 0)"><path xmlns="http://www.w3.org/2000/svg" d="M348.6 183 L434.1 183" fill="none" stroke="rgb(53, 107, 131)" stroke-width="2.524" marker-end="url(#u02fup_forceMarker-print-0-16-marker-end)" stroke-linecap="butt" stroke-linejoin="miter" stroke-dasharray="none" fill-opacity="1" stroke-opacity="1" opacity="1" marker-start="none" marker-mid="none" data-source-geometry="16"/></g></g><g transform="translate(-17.792 -29.664) scale(0.532)"><g transform="matrix(1 0 0 1 0 0)"><line xmlns="http://www.w3.org/2000/svg" x1="52" y1="191" x2="62" y2="191" stroke="rgb(101, 119, 129)" stroke-width="1.317" fill="rgb(58, 74, 86)" stroke-linecap="butt" stroke-linejoin="miter" stroke-dasharray="none" fill-opacity="1" stroke-opacity="1" opacity="1" marker-start="none" marker-mid="none" marker-end="none" data-source-geometry="20"/></g></g><g transform="translate(-17.792 -29.664) scale(0.532)"><g transform="matrix(1 0 0 1 0 0)"><line xmlns="http://www.w3.org/2000/svg" x1="52" y1="337" x2="62" y2="337" stroke="rgb(101, 119, 129)" stroke-width="1.317" fill="rgb(58, 74, 86)" stroke-linecap="butt" stroke-linejoin="miter" stroke-dasharray="none" fill-opacity="1" stroke-opacity="1" opacity="1" marker-start="none" marker-mid="none" marker-end="none" data-source-geometry="21"/></g></g><defs><marker xmlns="http://www.w3.org/2000/svg" id="u02fup_dim-print-0-22-marker-start" markerWidth="7.526" markerHeight="6.271" refX="6" refY="2.5" orient="auto-start-reverse" viewBox="0 0 6 5" markerUnits="userSpaceOnUse">
      <path d="M0 0 L6 2.5 L0 5 Z" fill="#657781"/>
    </marker></defs><defs><marker xmlns="http://www.w3.org/2000/svg" id="u02fup_dim-print-0-22-marker-end" markerWidth="7.526" markerHeight="6.271" refX="6" refY="2.5" orient="auto-start-reverse" viewBox="0 0 6 5" markerUnits="userSpaceOnUse">
      <path d="M0 0 L6 2.5 L0 5 Z" fill="#657781"/>
    </marker></defs><g transform="translate(-17.792 -29.664) scale(0.532)"><g transform="matrix(1 0 0 1 0 0)"><path xmlns="http://www.w3.org/2000/svg" d="M57 191 L57 337" fill="none" stroke="rgb(101, 119, 129)" stroke-width="1.536" marker-start="url(#u02fup_dim-print-0-22-marker-start)" marker-end="url(#u02fup_dim-print-0-22-marker-end)" stroke-linecap="butt" stroke-linejoin="miter" stroke-dasharray="none" fill-opacity="1" stroke-opacity="1" opacity="1" marker-mid="none" data-source-geometry="22"/></g></g><g transform="translate(200.213 61.225)"><text data-source-text="6" x="0" y="0" text-anchor="middle" font-size="9.5" font-weight="400" fill="rgb(38, 55, 70)">F</text></g><g transform="translate(30.251 84.08)"><text data-source-text="5" x="0" y="0" text-anchor="middle" font-size="9.5" font-weight="400" fill="rgb(38, 55, 70)">Fᵥ</text></g><g transform="translate(4 112.781)"><text data-source-text="9" x="0" y="0" text-anchor="start" font-size="9" font-weight="400" fill="rgb(38, 55, 70)">δ</text></g><g transform="translate(152.951 116.087)"><text data-source-text="7" x="0" y="0" text-anchor="start" font-size="9" font-weight="400" fill="rgb(38, 55, 70)">u(y)</text></g><g transform="translate(108.469 173.397)"><text data-source-text="8" x="0" y="0" text-anchor="middle" font-size="9" font-weight="400" fill="rgb(38, 55, 70)">donja stijenka: u = 0</text></g><g transform="translate(108.469 188.397)"><text data-source-text="11" x="0" y="0" text-anchor="middle" font-size="9" font-weight="600" fill="rgb(38, 55, 70)">Što se čita iz crteža</text></g><g transform="translate(108.469 203.397)"><text data-source-text="12" x="0" y="0" text-anchor="middle" font-size="9" font-weight="400" fill="rgb(38, 55, 70)">Brzina: od 0 na donjoj stijenci do v na gornjoj.</text></g><g transform="translate(108.469 218.397)"><text data-source-text="13" x="0" y="0" text-anchor="middle" font-size="9" font-weight="400" fill="rgb(38, 55, 70)">Fᵥ: sila ulja na ploču; F: vanjska vučna sila.</text></g><g transform="translate(108.469 233.397)"><text data-source-text="14" x="0" y="0" text-anchor="middle" font-size="9" font-weight="600" fill="rgb(38, 55, 70)">τ = μ du/dy; ν = μ/ρ</text></g><g transform="translate(108.469 248.397)"><text data-source-text="15" x="0" y="0" text-anchor="middle" font-size="9" font-weight="400" fill="rgb(38, 55, 70)">Newtonski model provjerava se pri istoj temperaturi.</text></g><g transform="translate(108.469 263.397)"><text data-source-text="16" x="0" y="0" text-anchor="middle" font-size="9" font-weight="400" fill="rgb(38, 55, 70)">Vektori brzine i sile imaju različite oznake.</text></g><g transform="translate(230.937 0)"><g transform="translate(108.469 13.5)"><text data-source-text="17" x="0" y="0" text-anchor="middle" font-size="9.5" font-weight="600" fill="rgb(38, 55, 70)">POVRŠINSKA NAPETOST — granica faza</text></g><g transform="translate(-325.648 -53.572) scale(0.615)"><g transform="matrix(1 0 0 1 0 0)"><path xmlns="http://www.w3.org/2000/svg" d="M543.00000000 249.00000000 L612.00000000 249.00000000 L612.00000000 275.00000000 L617.00000000 275.00000000 L617.00000000 181.55494714 L617.07569816 181.78118509 L617.15533319 182.00606747 L617.23888083 182.22952578 L617.32631563 182.45149195 L617.41761095 182.67189836 L617.51273900 182.89067789 L617.61167078 183.10776387 L617.71437617 183.32309020 L617.82082388 183.53659127 L617.93098148 183.74820206 L618.04481543 183.95785811 L618.16229103 184.16549554 L618.28337252 184.37105112 L618.40802301 184.57446223 L618.53620453 184.77566691 L618.66787803 184.97460387 L618.80300340 185.17121251 L618.94153949 185.36543294 L619.08344409 185.55720600 L619.22867398 185.74647328 L619.37718492 185.93317712 L619.52893168 186.11726065 L619.68386802 186.29866780 L619.84194676 186.47734331 L620.00311973 186.65323275 L620.16733786 186.82628254 L620.33455110 186.99643998 L620.50470854 187.16365323 L620.67775834 187.32787135 L620.85364778 187.48904433 L621.03232328 187.64712307 L621.21373043 187.80205941 L621.39781396 187.95380616 L621.58451781 188.10231710 L621.77378508 188.24754699 L621.96555815 188.38945159 L622.15977858 188.52798768 L622.35638722 188.66311306 L622.55532417 188.79478655 L622.75652885 188.92296807 L622.95993996 189.04761856 L623.16549554 189.16870005 L623.37313298 189.28617566 L623.58278902 189.40000960 L623.79439981 189.51016721 L624.00790089 189.61661492 L624.22322721 189.71932031 L624.44031320 189.81825209 L624.65909272 189.91338013 L624.87949913 190.00467546 L625.10146530 190.09211026 L625.32492361 190.17565790 L625.54980599 190.25529292 L625.77604395 190.33099108 L626.00356856 190.40272932 L626.23231053 190.47048578 L626.46220017 190.53423982 L626.69316745 190.59397202 L626.92514203 190.64966419 L627.15805324 190.70129936 L627.39183014 190.74886181 L627.62640151 190.79233704 L627.86169590 190.83171182 L628.09764164 190.86697414 L628.33416686 190.89811328 L628.57119950 190.92511974 L628.80866738 190.94798529 L629.04649814 190.96670298 L629.28461935 190.98126710 L629.52295847 190.99167321 L629.76144290 190.99791814 L630.00000000 191.00000000 L630.23855710 190.99791814 L630.47704153 190.99167321 L630.71538065 190.98126710 L630.95350186 190.96670298 L631.19133262 190.94798529 L631.42880050 190.92511974 L631.66583314 190.89811328 L631.90235836 190.86697414 L632.13830410 190.83171182 L632.37359849 190.79233704 L632.60816986 190.74886181 L632.84194676 190.70129936 L633.07485797 190.64966419 L633.30683255 190.59397202 L633.53779983 190.53423982 L633.76768947 190.47048578 L633.99643144 190.40272932 L634.22395605 190.33099108 L634.45019401 190.25529292 L634.67507639 190.17565790 L634.89853470 190.09211026 L635.12050087 190.00467546 L635.34090728 189.91338013 L635.55968680 189.81825209 L635.77677279 189.71932031 L635.99209911 189.61661492 L636.20560019 189.51016721 L636.41721098 189.40000960 L636.62686702 189.28617566 L636.83450446 189.16870005 L637.04006004 189.04761856 L637.24347115 188.92296807 L637.44467583 188.79478655 L637.64361278 188.66311306 L637.84022142 188.52798768 L638.03444185 188.38945159 L638.22621492 188.24754699 L638.41548219 188.10231710 L638.60218604 187.95380616 L638.78626957 187.80205941 L638.96767672 187.64712307 L639.14635222 187.48904433 L639.32224166 187.32787135 L639.49529146 187.16365323 L639.66544890 186.99643998 L639.83266214 186.82628254 L639.99688027 186.65323275 L640.15805324 186.47734331 L640.31613198 186.29866780 L640.47106832 186.11726065 L640.62281508 185.93317712 L640.77132602 185.74647328 L640.91655591 185.55720600 L641.05846051 185.36543294 L641.19699660 185.17121251 L641.33212197 184.97460387 L641.46379547 184.77566691 L641.59197699 184.57446223 L641.71662748 184.37105112 L641.83770897 184.16549554 L641.95518457 183.95785811 L642.06901852 183.74820206 L642.17917612 183.53659127 L642.28562383 183.32309020 L642.38832922 183.10776387 L642.48726100 182.89067789 L642.58238905 182.67189836 L642.67368437 182.45149195 L642.76111917 182.22952578 L642.84466681 182.00606747 L642.92430184 181.78118509 L643.00000000 181.55494714 L643.00000000 275.00000000 L648.00000000 275.00000000 L648.00000000 249.00000000 L717.00000000 249.00000000 L717.00000000 289.00000000 L543.00000000 289.00000000 L543.00000000 249.00000000 Z" fill="rgb(220, 235, 241)" stroke="none" stroke-width="1.8px" stroke-linecap="butt" stroke-linejoin="miter" stroke-dasharray="none" fill-opacity="1" stroke-opacity="1" opacity="1" marker-start="none" marker-mid="none" marker-end="none" data-source-geometry="32"/></g></g><g transform="translate(-325.648 -53.572) scale(0.615)"><g transform="matrix(1 0 0 1 0 0)"><rect xmlns="http://www.w3.org/2000/svg" x="536" y="229" width="7" height="67" rx="0" fill="rgb(255, 255, 255)" stroke="none" stroke-width="1.2px" stroke-linecap="butt" stroke-linejoin="miter" stroke-dasharray="none" fill-opacity="1" stroke-opacity="1" opacity="1" marker-start="none" marker-mid="none" marker-end="none" data-source-geometry="33"/></g></g><g transform="translate(-325.648 -53.572) scale(0.615)"><g transform="matrix(1 0 0 1 0 0)"><rect xmlns="http://www.w3.org/2000/svg" x="536" y="229" width="7" height="67" rx="0" fill="url(#u02fup_hatch)" stroke="rgb(58, 74, 86)" stroke-width="1.138" stroke-linecap="butt" stroke-linejoin="miter" stroke-dasharray="none" fill-opacity="1" stroke-opacity="1" opacity="1" marker-start="none" marker-mid="none" marker-end="none" data-source-geometry="34"/></g></g><g transform="translate(-325.648 -53.572) scale(0.615)"><g transform="matrix(1 0 0 1 0 0)"><rect xmlns="http://www.w3.org/2000/svg" x="717" y="229" width="7" height="67" rx="0" fill="rgb(255, 255, 255)" stroke="none" stroke-width="1.2px" stroke-linecap="butt" stroke-linejoin="miter" stroke-dasharray="none" fill-opacity="1" stroke-opacity="1" opacity="1" marker-start="none" marker-mid="none" marker-end="none" data-source-geometry="35"/></g></g><g transform="translate(-325.648 -53.572) scale(0.615)"><g transform="matrix(1 0 0 1 0 0)"><rect xmlns="http://www.w3.org/2000/svg" x="717" y="229" width="7" height="67" rx="0" fill="url(#u02fup_hatch)" stroke="rgb(58, 74, 86)" stroke-width="1.138" stroke-linecap="butt" stroke-linejoin="miter" stroke-dasharray="none" fill-opacity="1" stroke-opacity="1" opacity="1" marker-start="none" marker-mid="none" marker-end="none" data-source-geometry="36"/></g></g><g transform="translate(-325.648 -53.572) scale(0.615)"><g transform="matrix(1 0 0 1 0 0)"><rect xmlns="http://www.w3.org/2000/svg" x="536" y="289" width="188" height="7" rx="0" fill="rgb(255, 255, 255)" stroke="none" stroke-width="1.2px" stroke-linecap="butt" stroke-linejoin="miter" stroke-dasharray="none" fill-opacity="1" stroke-opacity="1" opacity="1" marker-start="none" marker-mid="none" marker-end="none" data-source-geometry="37"/></g></g><g transform="translate(-325.648 -53.572) scale(0.615)"><g transform="matrix(1 0 0 1 0 0)"><rect xmlns="http://www.w3.org/2000/svg" x="536" y="289" width="188" height="7" rx="0" fill="url(#u02fup_hatch)" stroke="rgb(58, 74, 86)" stroke-width="1.138" stroke-linecap="butt" stroke-linejoin="miter" stroke-dasharray="none" fill-opacity="1" stroke-opacity="1" opacity="1" marker-start="none" marker-mid="none" marker-end="none" data-source-geometry="38"/></g></g><g transform="translate(-325.648 -53.572) scale(0.615)"><g transform="matrix(1 0 0 1 0 0)"><line xmlns="http://www.w3.org/2000/svg" x1="543" y1="249" x2="612.0" y2="249" stroke="rgb(53, 107, 131)" stroke-width="1.707" fill="rgb(58, 74, 86)" stroke-linecap="butt" stroke-linejoin="miter" stroke-dasharray="none" fill-opacity="1" stroke-opacity="1" opacity="1" marker-start="none" marker-mid="none" marker-end="none" data-source-geometry="39"/></g></g><g transform="translate(-325.648 -53.572) scale(0.615)"><g transform="matrix(1 0 0 1 0 0)"><rect xmlns="http://www.w3.org/2000/svg" x="612.0" y="134" width="5" height="141" rx="0" fill="rgb(255, 255, 255)" stroke="none" stroke-width="1.2px" stroke-linecap="butt" stroke-linejoin="miter" stroke-dasharray="none" fill-opacity="1" stroke-opacity="1" opacity="1" marker-start="none" marker-mid="none" marker-end="none" data-source-geometry="40"/></g></g><g transform="translate(-325.648 -53.572) scale(0.615)"><g transform="matrix(1 0 0 1 0 0)"><rect xmlns="http://www.w3.org/2000/svg" x="612.0" y="134" width="5" height="141" rx="0" fill="url(#u02fup_hatch)" stroke="rgb(58, 74, 86)" stroke-width="1.138" stroke-linecap="butt" stroke-linejoin="miter" stroke-dasharray="none" fill-opacity="1" stroke-opacity="1" opacity="1" marker-start="none" marker-mid="none" marker-end="none" data-source-geometry="41"/></g></g><g transform="translate(-325.648 -53.572) scale(0.615)"><g transform="matrix(1 0 0 1 0 0)"><rect xmlns="http://www.w3.org/2000/svg" x="643.0" y="134" width="5" height="141" rx="0" fill="rgb(255, 255, 255)" stroke="none" stroke-width="1.2px" stroke-linecap="butt" stroke-linejoin="miter" stroke-dasharray="none" fill-opacity="1" stroke-opacity="1" opacity="1" marker-start="none" marker-mid="none" marker-end="none" data-source-geometry="42"/></g></g><g transform="translate(-325.648 -53.572) scale(0.615)"><g transform="matrix(1 0 0 1 0 0)"><rect xmlns="http://www.w3.org/2000/svg" x="643.0" y="134" width="5" height="141" rx="0" fill="url(#u02fup_hatch)" stroke="rgb(58, 74, 86)" stroke-width="1.138" stroke-linecap="butt" stroke-linejoin="miter" stroke-dasharray="none" fill-opacity="1" stroke-opacity="1" opacity="1" marker-start="none" marker-mid="none" marker-end="none" data-source-geometry="43"/></g></g><g transform="translate(-325.648 -53.572) scale(0.615)"><g transform="matrix(1 0 0 1 0 0)"><path xmlns="http://www.w3.org/2000/svg" d="M617.0 181.55494713593032 A13.669008915097475 13.669008915097475 0 0 0 643.0 181.55494713593032" fill="none" stroke="rgb(53, 107, 131)" stroke-width="1.707" stroke-linecap="butt" stroke-linejoin="miter" stroke-dasharray="none" fill-opacity="1" stroke-opacity="1" opacity="1" marker-start="none" marker-mid="none" marker-end="none" data-source-geometry="44"/></g></g><g transform="translate(-325.648 -53.572) scale(0.615)"><g transform="matrix(1 0 0 1 0 0)"><line xmlns="http://www.w3.org/2000/svg" x1="648.0" y1="249" x2="717" y2="249" stroke="rgb(53, 107, 131)" stroke-width="1.707" fill="rgb(58, 74, 86)" stroke-linecap="butt" stroke-linejoin="miter" stroke-dasharray="none" fill-opacity="1" stroke-opacity="1" opacity="1" marker-start="none" marker-mid="none" marker-end="none" data-source-geometry="45"/></g></g><defs><marker xmlns="http://www.w3.org/2000/svg" id="u02fup_pressureMarker-print-1-46-marker-end" markerWidth="6.504" markerHeight="5.575" refX="7" refY="3" orient="auto" viewBox="0 0 7 6" markerUnits="userSpaceOnUse">
        <path d="M0 0 L7 3 L0 6 Z" fill="#356b83"/>
      </marker></defs><g transform="translate(-325.648 -53.572) scale(0.615)"><g transform="matrix(1 0 0 1 0 0)"><path xmlns="http://www.w3.org/2000/svg" d="M617.0 181.55494713593032 L609.2745751406263 157.77853422855148" fill="none" stroke="rgb(53, 107, 131)" stroke-width="2.182" marker-end="url(#u02fup_pressureMarker-print-1-46-marker-end)" stroke-linecap="butt" stroke-linejoin="miter" stroke-dasharray="none" fill-opacity="1" stroke-opacity="1" opacity="1" marker-start="none" marker-mid="none" data-source-geometry="46"/></g></g><defs><marker xmlns="http://www.w3.org/2000/svg" id="u02fup_pressureMarker-print-1-47-marker-end" markerWidth="6.504" markerHeight="5.575" refX="7" refY="3" orient="auto" viewBox="0 0 7 6" markerUnits="userSpaceOnUse">
        <path d="M0 0 L7 3 L0 6 Z" fill="#356b83"/>
      </marker></defs><g transform="translate(-325.648 -53.572) scale(0.615)"><g transform="matrix(1 0 0 1 0 0)"><path xmlns="http://www.w3.org/2000/svg" d="M643.0 181.55494713593032 L650.7254248593737 157.77853422855148" fill="none" stroke="rgb(53, 107, 131)" stroke-width="2.182" marker-end="url(#u02fup_pressureMarker-print-1-47-marker-end)" stroke-linecap="butt" stroke-linejoin="miter" stroke-dasharray="none" fill-opacity="1" stroke-opacity="1" opacity="1" marker-start="none" marker-mid="none" data-source-geometry="47"/></g></g><g transform="translate(-325.648 -53.572) scale(0.615)"><g transform="matrix(1 0 0 1 0 0)"><line xmlns="http://www.w3.org/2000/svg" x1="617" y1="118" x2="617" y2="128" stroke="rgb(101, 119, 129)" stroke-width="1.138" fill="rgb(58, 74, 86)" stroke-linecap="butt" stroke-linejoin="miter" stroke-dasharray="none" fill-opacity="1" stroke-opacity="1" opacity="1" marker-start="none" marker-mid="none" marker-end="none" data-source-geometry="48"/></g></g><g transform="translate(-325.648 -53.572) scale(0.615)"><g transform="matrix(1 0 0 1 0 0)"><line xmlns="http://www.w3.org/2000/svg" x1="643" y1="118" x2="643" y2="128" stroke="rgb(101, 119, 129)" stroke-width="1.138" fill="rgb(58, 74, 86)" stroke-linecap="butt" stroke-linejoin="miter" stroke-dasharray="none" fill-opacity="1" stroke-opacity="1" opacity="1" marker-start="none" marker-mid="none" marker-end="none" data-source-geometry="49"/></g></g><defs><marker xmlns="http://www.w3.org/2000/svg" id="u02fup_dim-print-1-50-marker-start" markerWidth="6.504" markerHeight="5.42" refX="6" refY="2.5" orient="auto-start-reverse" viewBox="0 0 6 5" markerUnits="userSpaceOnUse">
      <path d="M0 0 L6 2.5 L0 5 Z" fill="#657781"/>
    </marker></defs><defs><marker xmlns="http://www.w3.org/2000/svg" id="u02fup_dim-print-1-50-marker-end" markerWidth="6.504" markerHeight="5.42" refX="6" refY="2.5" orient="auto-start-reverse" viewBox="0 0 6 5" markerUnits="userSpaceOnUse">
      <path d="M0 0 L6 2.5 L0 5 Z" fill="#657781"/>
    </marker></defs><g transform="translate(-325.648 -53.572) scale(0.615)"><g transform="matrix(1 0 0 1 0 0)"><path xmlns="http://www.w3.org/2000/svg" d="M617 123 L643 123" fill="none" stroke="rgb(101, 119, 129)" stroke-width="1.328" marker-start="url(#u02fup_dim-print-1-50-marker-start)" marker-end="url(#u02fup_dim-print-1-50-marker-end)" stroke-linecap="butt" stroke-linejoin="miter" stroke-dasharray="none" fill-opacity="1" stroke-opacity="1" opacity="1" marker-mid="none" data-source-geometry="50"/></g></g><g transform="translate(-325.648 -53.572) scale(0.615)"><g transform="matrix(1 0 0 1 0 0)"><line xmlns="http://www.w3.org/2000/svg" x1="736" y1="191" x2="746" y2="191" stroke="rgb(101, 119, 129)" stroke-width="1.138" fill="rgb(58, 74, 86)" stroke-linecap="butt" stroke-linejoin="miter" stroke-dasharray="none" fill-opacity="1" stroke-opacity="1" opacity="1" marker-start="none" marker-mid="none" marker-end="none" data-source-geometry="52"/></g></g><g transform="translate(-325.648 -53.572) scale(0.615)"><g transform="matrix(1 0 0 1 0 0)"><line xmlns="http://www.w3.org/2000/svg" x1="736" y1="249" x2="746" y2="249" stroke="rgb(101, 119, 129)" stroke-width="1.138" fill="rgb(58, 74, 86)" stroke-linecap="butt" stroke-linejoin="miter" stroke-dasharray="none" fill-opacity="1" stroke-opacity="1" opacity="1" marker-start="none" marker-mid="none" marker-end="none" data-source-geometry="53"/></g></g><defs><marker xmlns="http://www.w3.org/2000/svg" id="u02fup_dim-print-1-54-marker-start" markerWidth="6.504" markerHeight="5.42" refX="6" refY="2.5" orient="auto-start-reverse" viewBox="0 0 6 5" markerUnits="userSpaceOnUse">
      <path d="M0 0 L6 2.5 L0 5 Z" fill="#657781"/>
    </marker></defs><defs><marker xmlns="http://www.w3.org/2000/svg" id="u02fup_dim-print-1-54-marker-end" markerWidth="6.504" markerHeight="5.42" refX="6" refY="2.5" orient="auto-start-reverse" viewBox="0 0 6 5" markerUnits="userSpaceOnUse">
      <path d="M0 0 L6 2.5 L0 5 Z" fill="#657781"/>
    </marker></defs><g transform="translate(-325.648 -53.572) scale(0.615)"><g transform="matrix(1 0 0 1 0 0)"><path xmlns="http://www.w3.org/2000/svg" d="M741 191 L741 249" fill="none" stroke="rgb(101, 119, 129)" stroke-width="1.328" marker-start="url(#u02fup_dim-print-1-54-marker-start)" marker-end="url(#u02fup_dim-print-1-54-marker-end)" stroke-linecap="butt" stroke-linejoin="miter" stroke-dasharray="none" fill-opacity="1" stroke-opacity="1" opacity="1" marker-mid="none" data-source-geometry="54"/></g></g><g transform="translate(-325.648 -53.572) scale(0.615)"><g transform="matrix(1 0 0 1 0 0)"><line xmlns="http://www.w3.org/2000/svg" x1="643" y1="191" x2="746" y2="191" stroke="rgb(101, 119, 129)" stroke-width="0.948" fill="rgb(58, 74, 86)" stroke-linecap="butt" stroke-linejoin="miter" stroke-dasharray="none" fill-opacity="1" stroke-opacity="1" opacity="1" marker-start="none" marker-mid="none" marker-end="none" data-source-geometry="56"/></g></g><g transform="translate(-325.648 -53.572) scale(0.615)"><g transform="matrix(1 0 0 1 0 0)"><line xmlns="http://www.w3.org/2000/svg" x1="717" y1="249" x2="746" y2="249" stroke="rgb(101, 119, 129)" stroke-width="0.948" fill="rgb(58, 74, 86)" stroke-linecap="butt" stroke-linejoin="miter" stroke-dasharray="none" fill-opacity="1" stroke-opacity="1" opacity="1" marker-start="none" marker-mid="none" marker-end="none" data-source-geometry="57"/></g></g><g transform="translate(61.811 32.53)"><text data-source-text="18" x="0" y="0" text-anchor="middle" font-size="9" font-weight="400" fill="rgb(38, 55, 70)">d</text></g><g transform="translate(179.279 44.216)"><text data-source-text="20" x="0" y="0" text-anchor="middle" font-size="9.5" font-weight="400" fill="rgb(38, 55, 70)">θ &lt; 90°</text></g><g transform="translate(170.975 57.131)"><text data-source-text="21" x="0" y="0" text-anchor="middle" font-size="9.5" font-weight="400" fill="rgb(38, 55, 70)">konkavan meniskus</text></g><g transform="translate(168.164 77.426)"><text data-source-text="22" x="0" y="0" text-anchor="middle" font-size="9" font-weight="400" fill="rgb(38, 55, 70)">tekućina kvasi stijenku</text></g><g transform="translate(137.458 90.192)"><text data-source-text="19" x="0" y="0" text-anchor="start" font-size="9" font-weight="400" fill="rgb(38, 55, 70)">h</text></g><g transform="translate(174.96 102.417)"><text data-source-text="23" x="0" y="0" text-anchor="middle" font-size="9.5" font-weight="600" fill="rgb(38, 55, 70)">Fσ,z = σπd cosθ</text></g><g transform="translate(170.414 115.407)"><text data-source-text="24" x="0" y="0" text-anchor="middle" font-size="9" font-weight="400" fill="rgb(38, 55, 70)">otvoren, uronjen ulaz</text></g><g transform="translate(108.469 144.973)"><text data-source-text="25" x="0" y="0" text-anchor="middle" font-size="9" font-weight="600" fill="rgb(38, 55, 70)">KLJUČNE JEDNADŽBE</text></g><g transform="translate(108.469 159.973)"><text data-source-text="26" x="0" y="0" text-anchor="middle" font-size="9" font-weight="600" fill="rgb(38, 55, 70)">1. Newtonski model</text></g><g transform="translate(108.469 174.973)"><text data-source-text="27" x="0" y="0" text-anchor="middle" font-size="9" font-weight="600" fill="rgb(38, 55, 70)">τ = μ du/dy</text></g><g transform="translate(108.469 189.973)"><text data-source-text="28" x="0" y="0" text-anchor="middle" font-size="9" font-weight="600" fill="rgb(38, 55, 70)">2. Kinematička viskoznost</text></g><g transform="translate(108.469 204.973)"><text data-source-text="29" x="0" y="0" text-anchor="middle" font-size="9" font-weight="600" fill="rgb(38, 55, 70)">ν = μ/ρ</text></g><g transform="translate(108.469 219.973)"><text data-source-text="30" x="0" y="0" text-anchor="middle" font-size="9" font-weight="600" fill="rgb(38, 55, 70)">3. Ravnoteža podignutog stupca</text></g><g transform="translate(108.469 234.973)"><text data-source-text="31" x="0" y="0" text-anchor="middle" font-size="9" font-weight="600" fill="rgb(38, 55, 70)">σπd cosθ = ρg (πd²/4)h</text></g><g transform="translate(108.469 249.973)"><text data-source-text="32" x="0" y="0" text-anchor="middle" font-size="9" font-weight="600" fill="rgb(38, 55, 70)">4. Kapilarni uspon</text></g><g transform="translate(108.469 264.973)"><text data-source-text="33" x="0" y="0" text-anchor="middle" font-size="9" font-weight="600" fill="rgb(38, 55, 70)">h = 4σ cosθ/(ρgd)</text></g></g></g></svg>
