<svg xmlns="http://www.w3.org/2000/svg" width="277.682pt" height="172.949pt" viewBox="0 0 277.682 172.949" role="img"><title>Skice zadataka Z1–Z6: hidrostatske sile na plohe</title><defs>
    <marker xmlns="http://www.w3.org/2000/svg" id="u05vs_force" markerWidth="6" markerHeight="5" refX="6" refY="2.5" orient="auto">
      <path d="M0 0 L0 5 L6 2.5 Z" fill="#c0392b" stroke="none" stroke-width="1.2"/>
    </marker>
    <marker xmlns="http://www.w3.org/2000/svg" id="u05vs_green" markerWidth="6" markerHeight="5" refX="6" refY="2.5" orient="auto">
      <path d="M0 0 L0 5 L6 2.5 Z" fill="#1e8449" stroke="none" stroke-width="1.2"/>
    </marker>
    <marker xmlns="http://www.w3.org/2000/svg" id="u05vs_normal" markerWidth="6" markerHeight="5" refX="6" refY="2.5" orient="auto">
      <path d="M0 0 L0 5 L6 2.5 Z" fill="#1565c0" stroke="none" stroke-width="1.2"/>
    </marker>
    <marker xmlns="http://www.w3.org/2000/svg" id="u05vs_axis" markerWidth="6" markerHeight="5" refX="6" refY="2.5" orient="auto">
      <path d="M0 0 L0 5 L6 2.5 Z" fill="#3a4a56" stroke="none" stroke-width="1.2"/>
    </marker>
    <marker xmlns="http://www.w3.org/2000/svg" id="u05vs_dim" markerWidth="6" markerHeight="5" refX="6" refY="2.5" orient="auto">
      <path d="M0 0 L0 5 L6 2.5 Z" fill="#b7600c" stroke="none" stroke-width="1.2"/>
    </marker>
    <marker xmlns="http://www.w3.org/2000/svg" id="u05vs_dimL" markerWidth="6" markerHeight="5" refX="6" refY="2.5" orient="auto-start-reverse">
      <path d="M0 0 L0 5 L6 2.5 Z" fill="#b7600c" stroke="none" stroke-width="1.2"/>
    </marker>
    <linearGradient xmlns="http://www.w3.org/2000/svg" id="u05vs_water" x1="0" y1="45" x2="0" y2="190" gradientUnits="userSpaceOnUse">
      <stop offset="0%" stop-color="#aed6f1"/>
      <stop offset="100%" stop-color="#5b9ec9"/>
    </linearGradient>
    <pattern xmlns="http://www.w3.org/2000/svg" id="u05vs_hatch" width="7" height="7" patternUnits="userSpaceOnUse" patternTransform="rotate(45)">
      <rect x="0" y="0" width="7" height="7" fill="#d7dee3" stroke="none" stroke-width="1.2"/>
      <line x1="0" y1="0" x2="0" y2="7" stroke="#7a8a96" stroke-width="1.1"/>
    </pattern>
  </defs><g font-family="Arial, Liberation Sans, sans-serif"><g transform="translate(4 13.5)"><text data-source-text="59" x="0" y="0" text-anchor="start" font-size="9.5" font-weight="600" fill="rgb(58, 74, 86)">Z5</text></g><g transform="translate(28 13.5)"><text data-source-text="60" x="0" y="0" text-anchor="start" font-size="9.5" font-weight="400" fill="rgb(58, 74, 86)">Radijalni poklopac</text></g><g transform="translate(-49.622 -416.876) scale(0.789)"><g transform="matrix(1 0 0 1 28 518)"><path xmlns="http://www.w3.org/2000/svg" d="M48 54 H137 V103 A70 70 0 0 0 207 173 V189 H48 Z" fill="url(#u05vs_water)" stroke="none" stroke-width="1.2px" stroke-linecap="butt" stroke-linejoin="miter" stroke-dasharray="none" fill-opacity="1" stroke-opacity="1" opacity="1" marker-start="none" marker-mid="none" marker-end="none" data-source-geometry="131"/></g></g><g transform="translate(-49.622 -416.876) scale(0.789)"><g transform="matrix(1 0 0 1 28 518)"><rect xmlns="http://www.w3.org/2000/svg" x="40" y="41" width="8" height="156" fill="url(#u05vs_hatch)" stroke="rgb(58, 74, 86)" stroke-width="0.888" stroke-linecap="butt" stroke-linejoin="miter" stroke-dasharray="none" fill-opacity="1" stroke-opacity="1" opacity="1" marker-start="none" marker-mid="none" marker-end="none" data-source-geometry="132"/></g></g><g transform="translate(-49.622 -416.876) scale(0.789)"><g transform="matrix(1 0 0 1 28 518)"><rect xmlns="http://www.w3.org/2000/svg" x="40" y="189" width="175" height="8" fill="url(#u05vs_hatch)" stroke="rgb(58, 74, 86)" stroke-width="0.888" stroke-linecap="butt" stroke-linejoin="miter" stroke-dasharray="none" fill-opacity="1" stroke-opacity="1" opacity="1" marker-start="none" marker-mid="none" marker-end="none" data-source-geometry="133"/></g></g><g transform="translate(-49.622 -416.876) scale(0.789)"><g transform="matrix(1 0 0 1 28 518)"><rect xmlns="http://www.w3.org/2000/svg" x="137" y="41" width="8" height="62" fill="url(#u05vs_hatch)" stroke="rgb(58, 74, 86)" stroke-width="0.888" stroke-linecap="butt" stroke-linejoin="miter" stroke-dasharray="none" fill-opacity="1" stroke-opacity="1" opacity="1" marker-start="none" marker-mid="none" marker-end="none" data-source-geometry="134"/></g></g><g transform="translate(-49.622 -416.876) scale(0.789)"><g transform="matrix(1 0 0 1 28 518)"><rect xmlns="http://www.w3.org/2000/svg" x="207" y="173" width="8" height="16" fill="url(#u05vs_hatch)" stroke="rgb(58, 74, 86)" stroke-width="0.888" stroke-linecap="butt" stroke-linejoin="miter" stroke-dasharray="none" fill-opacity="1" stroke-opacity="1" opacity="1" marker-start="none" marker-mid="none" marker-end="none" data-source-geometry="135"/></g></g><g transform="translate(-49.622 -416.876) scale(0.789)"><g transform="matrix(1 0 0 1 28 518)"><line xmlns="http://www.w3.org/2000/svg" x1="48" y1="54" x2="137" y2="54" stroke="rgb(21, 101, 192)" stroke-width="1.479" fill="rgb(0, 0, 0)" stroke-linecap="butt" stroke-linejoin="miter" stroke-dasharray="none" fill-opacity="1" stroke-opacity="1" opacity="1" marker-start="none" marker-mid="none" marker-end="none" data-source-geometry="136"/></g></g><g transform="translate(-49.622 -416.876) scale(0.789)"><g transform="matrix(1 0 0 1 28 518)"><path xmlns="http://www.w3.org/2000/svg" d="M137 103 A70 70 0 0 0 207 173" fill="none" stroke="rgb(58, 74, 86)" stroke-width="3.5px" data-cx="207" data-cy="103" data-radius="70" stroke-linecap="butt" stroke-linejoin="miter" stroke-dasharray="none" fill-opacity="1" stroke-opacity="1" opacity="1" marker-start="none" marker-mid="none" marker-end="none" data-source-geometry="137"/></g></g><g transform="translate(-49.622 -416.876) scale(0.789)"><g transform="matrix(1 0 0 1 28 518)"><line xmlns="http://www.w3.org/2000/svg" x1="137" y1="103" x2="207" y2="103" stroke="rgb(58, 74, 86)" stroke-width="0.962" fill="rgb(0, 0, 0)" stroke-linecap="butt" stroke-linejoin="miter" stroke-dasharray="none" fill-opacity="1" stroke-opacity="1" opacity="1" marker-start="none" marker-mid="none" marker-end="none" data-source-geometry="138"/></g></g><g transform="translate(-49.622 -416.876) scale(0.789)"><g transform="matrix(1 0 0 1 28 518)"><line xmlns="http://www.w3.org/2000/svg" x1="207" y1="103" x2="207" y2="173" stroke="rgb(58, 74, 86)" stroke-width="0.962" fill="rgb(0, 0, 0)" stroke-linecap="butt" stroke-linejoin="miter" stroke-dasharray="none" fill-opacity="1" stroke-opacity="1" opacity="1" marker-start="none" marker-mid="none" marker-end="none" data-source-geometry="139"/></g></g><g transform="translate(-49.622 -416.876) scale(0.789)"><g transform="matrix(1 0 0 1 28 518)"><line xmlns="http://www.w3.org/2000/svg" x1="207" y1="103" x2="234" y2="103" stroke="rgb(58, 74, 86)" stroke-width="1.479" fill="rgb(0, 0, 0)" stroke-linecap="butt" stroke-linejoin="miter" stroke-dasharray="none" fill-opacity="1" stroke-opacity="1" opacity="1" marker-start="none" marker-mid="none" marker-end="none" data-source-geometry="140"/></g></g><g transform="translate(-49.622 -416.876) scale(0.789)"><g transform="matrix(1 0 0 1 28 518)"><rect xmlns="http://www.w3.org/2000/svg" x="234" y="93" width="8" height="20" fill="url(#u05vs_hatch)" stroke="rgb(58, 74, 86)" stroke-width="0.888" stroke-linecap="butt" stroke-linejoin="miter" stroke-dasharray="none" fill-opacity="1" stroke-opacity="1" opacity="1" marker-start="none" marker-mid="none" marker-end="none" data-source-geometry="141"/></g></g><g transform="translate(-49.622 -416.876) scale(0.789)"><g transform="matrix(1 0 0 1 28 518)"><circle xmlns="http://www.w3.org/2000/svg" cx="207" cy="103" r="5" fill="rgb(255, 255, 255)" stroke="rgb(58, 74, 86)" stroke-width="1.479" stroke-linecap="butt" stroke-linejoin="miter" stroke-dasharray="none" fill-opacity="1" stroke-opacity="1" opacity="1" marker-start="none" marker-mid="none" marker-end="none" data-source-geometry="142"/></g></g><g transform="translate(-49.622 -416.876) scale(0.789)"><g transform="matrix(1 0 0 1 28 518)"><circle xmlns="http://www.w3.org/2000/svg" cx="137" cy="103" r="3.5" fill="rgb(192, 57, 43)" stroke="none" stroke-width="1px" stroke-linecap="butt" stroke-linejoin="miter" stroke-dasharray="none" fill-opacity="1" stroke-opacity="1" opacity="1" marker-start="none" marker-mid="none" marker-end="none" data-source-geometry="144"/></g></g><g transform="translate(-49.622 -416.876) scale(0.789)"><g transform="matrix(1 0 0 1 28 518)"><circle xmlns="http://www.w3.org/2000/svg" cx="207" cy="173" r="3.5" fill="rgb(192, 57, 43)" stroke="none" stroke-width="1px" stroke-linecap="butt" stroke-linejoin="miter" stroke-dasharray="none" fill-opacity="1" stroke-opacity="1" opacity="1" marker-start="none" marker-mid="none" marker-end="none" data-source-geometry="146"/></g></g><defs><marker xmlns="http://www.w3.org/2000/svg" id="u05vs_force-print-4-148-marker-end" markerWidth="5.072" markerHeight="4.227" refX="6" refY="2.5" orient="auto" viewBox="0 0 6 5" markerUnits="userSpaceOnUse">
      <path d="M0 0 L0 5 L6 2.5 Z" fill="#c0392b" stroke="none" stroke-width="1.2"/>
    </marker></defs><g transform="translate(-49.622 -416.876) scale(0.789)"><g transform="matrix(1 0 0 1 28 518)"><line xmlns="http://www.w3.org/2000/svg" x1="180.64705882352942" y1="118" x2="180.64705882352942" y2="154" stroke="rgb(192, 57, 43)" stroke-width="1.627" marker-end="url(#u05vs_force-print-4-148-marker-end)" fill="rgb(0, 0, 0)" stroke-linecap="butt" stroke-linejoin="miter" stroke-dasharray="none" fill-opacity="1" stroke-opacity="1" opacity="1" marker-start="none" marker-mid="none" data-source-geometry="148"/></g></g><defs><marker xmlns="http://www.w3.org/2000/svg" id="u05vs_green-print-4-150-marker-end" markerWidth="5.072" markerHeight="4.227" refX="6" refY="2.5" orient="auto" viewBox="0 0 6 5" markerUnits="userSpaceOnUse">
      <path d="M0 0 L0 5 L6 2.5 Z" fill="#1e8449" stroke="none" stroke-width="1.2"/>
    </marker></defs><g transform="translate(-49.622 -416.876) scale(0.789)"><g transform="matrix(1 0 0 1 28 518)"><line xmlns="http://www.w3.org/2000/svg" x1="207" y1="173" x2="151" y2="173" stroke="rgb(30, 132, 73)" stroke-width="1.627" marker-end="url(#u05vs_green-print-4-150-marker-end)" fill="rgb(0, 0, 0)" stroke-linecap="butt" stroke-linejoin="miter" stroke-dasharray="none" fill-opacity="1" stroke-opacity="1" opacity="1" marker-start="none" marker-mid="none" data-source-geometry="150"/></g></g><defs><marker xmlns="http://www.w3.org/2000/svg" id="u05vs_normal-print-4-152-marker-end" markerWidth="5.072" markerHeight="4.227" refX="6" refY="2.5" orient="auto" viewBox="0 0 6 5" markerUnits="userSpaceOnUse">
      <path d="M0 0 L0 5 L6 2.5 Z" fill="#1565c0" stroke="none" stroke-width="1.2"/>
    </marker></defs><g transform="translate(-49.622 -416.876) scale(0.789)"><g transform="matrix(1 0 0 1 28 518)"><line xmlns="http://www.w3.org/2000/svg" x1="140.53196256846454" y1="169.46803743153546" x2="157.50252531694167" y2="152.49747468305833" stroke="rgb(21, 101, 192)" stroke-width="1.11" marker-end="url(#u05vs_normal-print-4-152-marker-end)" fill="rgb(0, 0, 0)" stroke-linecap="butt" stroke-linejoin="miter" stroke-dasharray="none" fill-opacity="1" stroke-opacity="1" opacity="1" marker-start="none" marker-mid="none" data-source-geometry="152"/></g></g><g transform="translate(-49.622 -416.876) scale(0.789)"><g transform="matrix(1 0 0 1 28 518)"><line xmlns="http://www.w3.org/2000/svg" x1="180.64705882352942" y1="62" x2="180.64705882352942" y2="72" stroke="rgb(183, 96, 12)" stroke-width="0.634" fill="rgb(0, 0, 0)" stroke-linecap="butt" stroke-linejoin="miter" stroke-dasharray="none" fill-opacity="1" stroke-opacity="1" opacity="1" marker-start="none" marker-mid="none" marker-end="none" data-source-geometry="155"/></g></g><g transform="translate(-49.622 -416.876) scale(0.789)"><g transform="matrix(1 0 0 1 28 518)"><line xmlns="http://www.w3.org/2000/svg" x1="207" y1="62" x2="207" y2="72" stroke="rgb(183, 96, 12)" stroke-width="0.634" fill="rgb(0, 0, 0)" stroke-linecap="butt" stroke-linejoin="miter" stroke-dasharray="none" fill-opacity="1" stroke-opacity="1" opacity="1" marker-start="none" marker-mid="none" marker-end="none" data-source-geometry="156"/></g></g><defs><marker xmlns="http://www.w3.org/2000/svg" id="u05vs_dimL-print-4-157-marker-start" markerWidth="5.072" markerHeight="4.227" refX="6" refY="2.5" orient="auto-start-reverse" viewBox="0 0 6 5" markerUnits="userSpaceOnUse">
      <path d="M0 0 L0 5 L6 2.5 Z" fill="#b7600c" stroke="none" stroke-width="1.2"/>
    </marker></defs><defs><marker xmlns="http://www.w3.org/2000/svg" id="u05vs_dim-print-4-157-marker-end" markerWidth="5.072" markerHeight="4.227" refX="6" refY="2.5" orient="auto" viewBox="0 0 6 5" markerUnits="userSpaceOnUse">
      <path d="M0 0 L0 5 L6 2.5 Z" fill="#b7600c" stroke="none" stroke-width="1.2"/>
    </marker></defs><g transform="translate(-49.622 -416.876) scale(0.789)"><g transform="matrix(1 0 0 1 28 518)"><line xmlns="http://www.w3.org/2000/svg" x1="180.64705882352942" y1="67" x2="207" y2="67" stroke="rgb(183, 96, 12)" stroke-width="0.888" marker-start="url(#u05vs_dimL-print-4-157-marker-start)" marker-end="url(#u05vs_dim-print-4-157-marker-end)" fill="rgb(0, 0, 0)" stroke-linecap="butt" stroke-linejoin="miter" stroke-dasharray="none" fill-opacity="1" stroke-opacity="1" opacity="1" marker-mid="none" data-source-geometry="157"/></g></g><g transform="translate(-49.622 -416.876) scale(0.789)"><g transform="matrix(1 0 0 1 28 518)"><line xmlns="http://www.w3.org/2000/svg" x1="180.64705882352942" y1="67" x2="180.64705882352942" y2="118" stroke="rgb(183, 96, 12)" stroke-width="0.634" stroke-dasharray="3px, 3px" fill="rgb(0, 0, 0)" stroke-linecap="butt" stroke-linejoin="miter" fill-opacity="1" stroke-opacity="1" opacity="1" marker-start="none" marker-mid="none" marker-end="none" data-source-geometry="159"/></g></g><g transform="translate(-49.622 -416.876) scale(0.789)"><g transform="matrix(1 0 0 1 28 518)"><line xmlns="http://www.w3.org/2000/svg" x1="207" y1="67" x2="207" y2="97" stroke="rgb(183, 96, 12)" stroke-width="0.634" stroke-dasharray="3px, 3px" fill="rgb(0, 0, 0)" stroke-linecap="butt" stroke-linejoin="miter" fill-opacity="1" stroke-opacity="1" opacity="1" marker-start="none" marker-mid="none" marker-end="none" data-source-geometry="160"/></g></g><g transform="translate(180.984 28.664)"><text data-source-text="70" x="0" y="0" text-anchor="start" font-size="9" font-weight="400" fill="rgb(58, 74, 86)">R = 0,85 m; b = 1,30 m</text></g><g transform="translate(183.005 43.647)"><text data-source-text="71" x="0" y="0" text-anchor="start" font-size="9" font-weight="400" fill="rgb(58, 74, 86)">h₁ = 0,60 m</text></g><g transform="translate(125.3 58.63)"><text data-source-text="68" x="0" y="0" text-anchor="middle" font-size="9" font-weight="400" fill="rgb(183, 96, 12)">|x<tspan font-size="9" font-weight="400" font-style="normal" fill="rgb(183, 96, 12)" baseline-shift="-2">G</tspan>|</text></g><g transform="translate(182.199 58.63)"><text data-source-text="72" x="0" y="0" text-anchor="start" font-size="9" font-weight="400" fill="rgb(192, 57, 43)">W = 2,40 kN</text></g><g transform="translate(138.845 64.938)"><text data-source-text="61" x="0" y="0" text-anchor="start" font-size="9.5" font-weight="600" fill="rgb(58, 74, 86)">O</text></g><g transform="translate(69.434 67.304)"><text data-source-text="62" x="0" y="0" text-anchor="start" font-size="9.5" font-weight="600" fill="rgb(192, 57, 43)">A</text></g><g transform="translate(108.879 67.304)"><text data-source-text="67" x="0" y="0" text-anchor="middle" font-size="9" font-weight="400" fill="rgb(183, 96, 12)">R</text></g><g transform="translate(182.199 73.613)"><text data-source-text="73" x="0" y="0" text-anchor="start" font-size="9" font-weight="400" fill="rgb(58, 74, 86)">x<tspan font-size="9" font-weight="400" font-style="normal" fill="rgb(58, 74, 86)" baseline-shift="-2">G</tspan> = −0,32 m</text></g><g transform="translate(182.199 88.595)"><text data-source-text="74" x="0" y="0" text-anchor="start" font-size="9" font-weight="400" fill="rgb(58, 74, 86)">T<tspan font-size="9" font-weight="400" font-style="normal" fill="rgb(58, 74, 86)" baseline-shift="-2">max</tspan> = 1,00 kN</text></g><g transform="translate(109.356 94.115)"><text data-source-text="64" x="0" y="0" text-anchor="end" font-size="9" font-weight="400" fill="rgb(192, 57, 43)">W</text></g><g transform="translate(183.005 103.578)"><text data-source-text="75" x="0" y="0" text-anchor="start" font-size="9" font-weight="400" fill="rgb(58, 74, 86)">Os u O, ne u A.</text></g><g transform="translate(59.988 112.252)"><text data-source-text="66" x="0" y="0" text-anchor="middle" font-size="9" font-weight="400" fill="rgb(21, 101, 192)">dF</text></g><g transform="translate(183.005 118.561)"><text data-source-text="76" x="0" y="0" text-anchor="start" font-size="9" font-weight="400" fill="rgb(58, 74, 86)">Spojnica izvan</text>
<text data-source-text="76" x="0" y="12" text-anchor="start" font-size="9" font-weight="400" fill="rgb(58, 74, 86)">presjeka.</text></g><g transform="translate(146.73 133.544)"><text data-source-text="63" x="0" y="0" text-anchor="start" font-size="9.5" font-weight="600" fill="rgb(192, 57, 43)">B</text></g><g transform="translate(180.665 142.544)"><text data-source-text="77" x="0" y="0" text-anchor="start" font-size="9" font-weight="400" fill="rgb(58, 74, 86)">Naći sile i moment u O.</text></g><g transform="translate(93.108 139.852)"><text data-source-text="65" x="0" y="0" text-anchor="middle" font-size="9" font-weight="400" fill="rgb(30, 132, 73)">T</text></g><g transform="translate(138.841 163.449)"><text data-source-text="69" x="0" y="0" text-anchor="middle" font-size="9" font-weight="400" fill="rgb(58, 74, 86)">+x →, +y ↑; sile na sklop</text></g></g></svg>
