<svg xmlns="http://www.w3.org/2000/svg" width="277.682pt" height="195.535pt" viewBox="0 0 277.682 195.535" role="img"><title>Izjednačni spremnik s porastom razine</title><defs>
    <pattern xmlns="http://www.w3.org/2000/svg" id="u08v3is_hatch" width="7" height="7" patternUnits="userSpaceOnUse" patternTransform="rotate(45)">
      <line x1="0" y1="0" x2="0" y2="7" stroke="#657781" stroke-width="1.8"/>
    </pattern>
    <marker xmlns="http://www.w3.org/2000/svg" id="u08v3is_aR" markerWidth="7" markerHeight="5" refX="6.5" refY="2.5" orient="auto">
      <path d="M0,0 L0,5 L7,2.5 z" fill="#356b83"/>
    </marker>
    <marker xmlns="http://www.w3.org/2000/svg" id="u08v3is_aG" markerWidth="7" markerHeight="5" refX="6.5" refY="2.5" orient="auto">
      <path d="M0,0 L0,5 L7,2.5 z" fill="#356b83"/>
    </marker>
    <marker xmlns="http://www.w3.org/2000/svg" id="u08v3is_aO" markerWidth="7" markerHeight="5" refX="6.5" refY="2.5" orient="auto">
      <path d="M0,0 L0,5 L7,2.5 z" fill="#eadfc5"/>
    </marker>
    <marker xmlns="http://www.w3.org/2000/svg" id="u08v3is_aDim" markerWidth="6" markerHeight="5" refX="6" refY="2.5" orient="auto">
      <path d="M0,0 L0,5 L6,2.5 z" fill="#356b83"/>
    </marker>
    <marker xmlns="http://www.w3.org/2000/svg" id="u08v3is_aDimR" markerWidth="6" markerHeight="5" refX="6" refY="2.5" orient="auto-start-reverse">
      <path d="M0,0 L0,5 L6,2.5 z" fill="#356b83"/>
    </marker>
    <marker xmlns="http://www.w3.org/2000/svg" id="u08v3is_fix_force" markerWidth="6" markerHeight="5" refX="6" refY="2.5" orient="auto">
      <path d="M0 0 L0 5 L6 2.5 Z" fill="#356b83" stroke="none" stroke-width="1.2"/>
    </marker>
    <marker xmlns="http://www.w3.org/2000/svg" id="u08v3is_fix_green" markerWidth="6" markerHeight="5" refX="6" refY="2.5" orient="auto">
      <path d="M0 0 L0 5 L6 2.5 Z" fill="#356b83" stroke="none" stroke-width="1.2"/>
    </marker>
    <marker xmlns="http://www.w3.org/2000/svg" id="u08v3is_fix_normal" markerWidth="6" markerHeight="5" refX="6" refY="2.5" orient="auto">
      <path d="M0 0 L0 5 L6 2.5 Z" fill="#356b83" stroke="none" stroke-width="1.2"/>
    </marker>
    <marker xmlns="http://www.w3.org/2000/svg" id="u08v3is_fix_axis" markerWidth="6" markerHeight="5" refX="6" refY="2.5" orient="auto">
      <path d="M0 0 L0 5 L6 2.5 Z" fill="#3a4a56" stroke="none" stroke-width="1.2"/>
    </marker>
    <marker xmlns="http://www.w3.org/2000/svg" id="u08v3is_fix_dim" markerWidth="6" markerHeight="5" refX="6" refY="2.5" orient="auto">
      <path d="M0 0 L0 5 L6 2.5 Z" fill="#657781" stroke="none" stroke-width="1.2"/>
    </marker>
    <marker xmlns="http://www.w3.org/2000/svg" id="u08v3is_fix_dimL" markerWidth="6" markerHeight="5" refX="6" refY="2.5" orient="auto-start-reverse">
      <path d="M0 0 L0 5 L6 2.5 Z" fill="#657781" stroke="none" stroke-width="1.2"/>
    </marker>
    <pattern xmlns="http://www.w3.org/2000/svg" id="u08v3is_fix_hatch" width="7" height="7" patternUnits="userSpaceOnUse" patternTransform="rotate(45)">
      <rect x="0" y="0" width="7" height="7" fill="#d7dee3" stroke="none" stroke-width="1.2"/>
      <line x1="0" y1="0" x2="0" y2="7" stroke="#657781" stroke-width="1.1"/>
    </pattern>
  </defs><g font-family="Arial, Liberation Sans, sans-serif"><g transform="translate(-6.161 -6.161) scale(0.423)"><g transform="matrix(1 0 0 1 6 -71)"><rect xmlns="http://www.w3.org/2000/svg" x="110" y="350" width="380" height="90" fill="rgb(220, 235, 241)" stroke="none" stroke-width="1.2px" stroke-linecap="butt" stroke-linejoin="miter" stroke-dasharray="none" fill-opacity="1" stroke-opacity="1" opacity="1" marker-start="none" marker-mid="none" marker-end="none" data-source-geometry="0"/></g></g><g transform="translate(-6.161 -6.161) scale(0.423)"><g transform="matrix(1 0 0 1 6 -71)"><rect xmlns="http://www.w3.org/2000/svg" x="101" y="110" width="9" height="25.0" fill="url(#u08v3is_fix_hatch)" stroke="rgb(58, 74, 86)" stroke-width="1.653" stroke-linecap="butt" stroke-linejoin="miter" stroke-dasharray="none" fill-opacity="1" stroke-opacity="1" opacity="1" marker-start="none" marker-mid="none" marker-end="none" data-source-geometry="1"/></g></g><g transform="translate(-6.161 -6.161) scale(0.423)"><g transform="matrix(1 0 0 1 6 -71)"><rect xmlns="http://www.w3.org/2000/svg" x="101" y="165.0" width="9" height="275.0" fill="url(#u08v3is_fix_hatch)" stroke="rgb(58, 74, 86)" stroke-width="1.653" stroke-linecap="butt" stroke-linejoin="miter" stroke-dasharray="none" fill-opacity="1" stroke-opacity="1" opacity="1" marker-start="none" marker-mid="none" marker-end="none" data-source-geometry="2"/></g></g><g transform="translate(-6.161 -6.161) scale(0.423)"><g transform="matrix(1 0 0 1 6 -71)"><rect xmlns="http://www.w3.org/2000/svg" x="490" y="110" width="9" height="290.0" fill="url(#u08v3is_fix_hatch)" stroke="rgb(58, 74, 86)" stroke-width="1.653" stroke-linecap="butt" stroke-linejoin="miter" stroke-dasharray="none" fill-opacity="1" stroke-opacity="1" opacity="1" marker-start="none" marker-mid="none" marker-end="none" data-source-geometry="3"/></g></g><g transform="translate(-6.161 -6.161) scale(0.423)"><g transform="matrix(1 0 0 1 6 -71)"><rect xmlns="http://www.w3.org/2000/svg" x="490" y="430.0" width="9" height="10.0" fill="url(#u08v3is_fix_hatch)" stroke="rgb(58, 74, 86)" stroke-width="1.653" stroke-linecap="butt" stroke-linejoin="miter" stroke-dasharray="none" fill-opacity="1" stroke-opacity="1" opacity="1" marker-start="none" marker-mid="none" marker-end="none" data-source-geometry="4"/></g></g><g transform="translate(-6.161 -6.161) scale(0.423)"><g transform="matrix(1 0 0 1 6 -71)"><rect xmlns="http://www.w3.org/2000/svg" x="101" y="440" width="398" height="9" fill="url(#u08v3is_fix_hatch)" stroke="rgb(58, 74, 86)" stroke-width="1.653" stroke-linecap="butt" stroke-linejoin="miter" stroke-dasharray="none" fill-opacity="1" stroke-opacity="1" opacity="1" marker-start="none" marker-mid="none" marker-end="none" data-source-geometry="5"/></g></g><g transform="translate(-6.161 -6.161) scale(0.423)"><g transform="matrix(1 0 0 1 6 -71)"><line xmlns="http://www.w3.org/2000/svg" x1="110" y1="350" x2="490" y2="350" stroke="rgb(53, 107, 131)" stroke-width="2.756" fill="rgb(0, 0, 0)" stroke-linecap="butt" stroke-linejoin="miter" stroke-dasharray="none" fill-opacity="1" stroke-opacity="1" opacity="1" marker-start="none" marker-mid="none" marker-end="none" data-source-geometry="6"/></g></g><g transform="translate(-6.161 -6.161) scale(0.423)"><g transform="matrix(1 0 0 1 6 -71)"><path xmlns="http://www.w3.org/2000/svg" d="M30 150 H155 V380" fill="none" stroke="rgb(58, 74, 86)" stroke-width="29px" stroke-linejoin="round" stroke-linecap="butt" stroke-dasharray="none" fill-opacity="1" stroke-opacity="1" opacity="1" marker-start="none" marker-mid="none" marker-end="none" data-source-geometry="7"/></g></g><g transform="translate(-6.161 -6.161) scale(0.423)"><g transform="matrix(1 0 0 1 6 -71)"><path xmlns="http://www.w3.org/2000/svg" d="M30 150 H155 V380" fill="none" stroke="rgb(197, 205, 211)" stroke-width="28px" stroke-linejoin="round" stroke-linecap="butt" stroke-dasharray="none" fill-opacity="1" stroke-opacity="1" opacity="1" marker-start="none" marker-mid="none" marker-end="none" data-source-geometry="8"/></g></g><g transform="translate(-6.161 -6.161) scale(0.423)"><g transform="matrix(1 0 0 1 6 -71)"><path xmlns="http://www.w3.org/2000/svg" d="M30 150 H155 V380" fill="none" stroke="url(#u08v3is_fix_hatch)" stroke-width="28px" stroke-linejoin="round" stroke-linecap="butt" stroke-dasharray="none" fill-opacity="1" stroke-opacity="1" opacity="1" marker-start="none" marker-mid="none" marker-end="none" data-source-geometry="9"/></g></g><g transform="translate(-6.161 -6.161) scale(0.423)"><g transform="matrix(1 0 0 1 6 -71)"><path xmlns="http://www.w3.org/2000/svg" d="M30 150 H155 V380" fill="none" stroke="rgb(220, 235, 241)" stroke-width="20px" stroke-linejoin="round" stroke-linecap="butt" stroke-dasharray="none" fill-opacity="1" stroke-opacity="1" opacity="1" marker-start="none" marker-mid="none" marker-end="none" data-source-geometry="10"/></g></g><g transform="translate(-6.161 -6.161) scale(0.423)"><g transform="matrix(1 0 0 1 6 -71)"><rect xmlns="http://www.w3.org/2000/svg" x="490" y="405.0" width="120" height="20" fill="rgb(220, 235, 241)" stroke="none" stroke-width="1.2px" stroke-linecap="butt" stroke-linejoin="miter" stroke-dasharray="none" fill-opacity="1" stroke-opacity="1" opacity="1" marker-start="none" marker-mid="none" marker-end="none" data-source-geometry="11"/></g></g><g transform="translate(-6.161 -6.161) scale(0.423)"><g transform="matrix(1 0 0 1 6 -71)"><rect xmlns="http://www.w3.org/2000/svg" x="490" y="400.0" width="120" height="5" fill="url(#u08v3is_fix_hatch)" stroke="rgb(58, 74, 86)" stroke-width="1.653" stroke-linecap="butt" stroke-linejoin="miter" stroke-dasharray="none" fill-opacity="1" stroke-opacity="1" opacity="1" marker-start="none" marker-mid="none" marker-end="none" data-source-geometry="12"/></g></g><g transform="translate(-6.161 -6.161) scale(0.423)"><g transform="matrix(1 0 0 1 6 -71)"><rect xmlns="http://www.w3.org/2000/svg" x="490" y="425.0" width="120" height="5" fill="url(#u08v3is_fix_hatch)" stroke="rgb(58, 74, 86)" stroke-width="1.653" stroke-linecap="butt" stroke-linejoin="miter" stroke-dasharray="none" fill-opacity="1" stroke-opacity="1" opacity="1" marker-start="none" marker-mid="none" marker-end="none" data-source-geometry="13"/></g></g><defs><marker xmlns="http://www.w3.org/2000/svg" id="u08v3is_fix_normal-print-0-14-marker-end" markerWidth="9.448" markerHeight="7.873" refX="6" refY="2.5" orient="auto" viewBox="0 0 6 5" markerUnits="userSpaceOnUse">
      <path d="M0 0 L0 5 L6 2.5 Z" fill="#356b83" stroke="none" stroke-width="1.2"/>
    </marker></defs><g transform="translate(-6.161 -6.161) scale(0.423)"><g transform="matrix(1 0 0 1 6 -71)"><line xmlns="http://www.w3.org/2000/svg" x1="45" y1="150" x2="90" y2="150" stroke="rgb(53, 107, 131)" stroke-width="3.031" marker-end="url(#u08v3is_fix_normal-print-0-14-marker-end)" fill="rgb(0, 0, 0)" stroke-linecap="butt" stroke-linejoin="miter" stroke-dasharray="none" fill-opacity="1" stroke-opacity="1" opacity="1" marker-start="none" marker-mid="none" data-source-geometry="14"/></g></g><defs><marker xmlns="http://www.w3.org/2000/svg" id="u08v3is_fix_green-print-0-15-marker-end" markerWidth="9.448" markerHeight="7.873" refX="6" refY="2.5" orient="auto" viewBox="0 0 6 5" markerUnits="userSpaceOnUse">
      <path d="M0 0 L0 5 L6 2.5 Z" fill="#356b83" stroke="none" stroke-width="1.2"/>
    </marker></defs><g transform="translate(-6.161 -6.161) scale(0.423)"><g transform="matrix(1 0 0 1 6 -71)"><line xmlns="http://www.w3.org/2000/svg" x1="535" y1="415" x2="595" y2="415" stroke="rgb(53, 107, 131)" stroke-width="3.031" marker-end="url(#u08v3is_fix_green-print-0-15-marker-end)" fill="rgb(0, 0, 0)" stroke-linecap="butt" stroke-linejoin="miter" stroke-dasharray="none" fill-opacity="1" stroke-opacity="1" opacity="1" marker-start="none" marker-mid="none" data-source-geometry="15"/></g></g><g transform="translate(-6.161 -6.161) scale(0.423)"><g transform="matrix(1 0 0 1 6 -71)"><line xmlns="http://www.w3.org/2000/svg" x1="110" y1="200" x2="490" y2="200" stroke="rgb(53, 107, 131)" stroke-width="1.791" stroke-dasharray="6px, 4px" fill="rgb(0, 0, 0)" stroke-linecap="butt" stroke-linejoin="miter" fill-opacity="1" stroke-opacity="1" opacity="1" marker-start="none" marker-mid="none" marker-end="none" data-source-geometry="18"/></g></g><defs><marker xmlns="http://www.w3.org/2000/svg" id="u08v3is_fix_green-print-0-21-marker-end" markerWidth="9.448" markerHeight="7.873" refX="6" refY="2.5" orient="auto" viewBox="0 0 6 5" markerUnits="userSpaceOnUse">
      <path d="M0 0 L0 5 L6 2.5 Z" fill="#356b83" stroke="none" stroke-width="1.2"/>
    </marker></defs><g transform="translate(-6.161 -6.161) scale(0.423)"><g transform="matrix(1 0 0 1 6 -71)"><line xmlns="http://www.w3.org/2000/svg" x1="315" y1="330" x2="315" y2="220" stroke="rgb(53, 107, 131)" stroke-width="3.031" marker-end="url(#u08v3is_fix_green-print-0-21-marker-end)" fill="rgb(0, 0, 0)" stroke-linecap="butt" stroke-linejoin="miter" stroke-dasharray="none" fill-opacity="1" stroke-opacity="1" opacity="1" marker-start="none" marker-mid="none" data-source-geometry="21"/></g></g><g transform="translate(-6.161 -6.161) scale(0.423)"><g transform="matrix(1 0 0 1 6 -71)"><line xmlns="http://www.w3.org/2000/svg" x1="68" y1="350" x2="78" y2="350" stroke="rgb(101, 119, 129)" stroke-width="1.181" fill="rgb(0, 0, 0)" stroke-linecap="butt" stroke-linejoin="miter" stroke-dasharray="none" fill-opacity="1" stroke-opacity="1" opacity="1" marker-start="none" marker-mid="none" marker-end="none" data-source-geometry="25"/></g></g><g transform="translate(-6.161 -6.161) scale(0.423)"><g transform="matrix(1 0 0 1 6 -71)"><line xmlns="http://www.w3.org/2000/svg" x1="68" y1="440" x2="78" y2="440" stroke="rgb(101, 119, 129)" stroke-width="1.181" fill="rgb(0, 0, 0)" stroke-linecap="butt" stroke-linejoin="miter" stroke-dasharray="none" fill-opacity="1" stroke-opacity="1" opacity="1" marker-start="none" marker-mid="none" marker-end="none" data-source-geometry="26"/></g></g><defs><marker xmlns="http://www.w3.org/2000/svg" id="u08v3is_fix_dimL-print-0-27-marker-start" markerWidth="9.448" markerHeight="7.873" refX="6" refY="2.5" orient="auto-start-reverse" viewBox="0 0 6 5" markerUnits="userSpaceOnUse">
      <path d="M0 0 L0 5 L6 2.5 Z" fill="#657781" stroke="none" stroke-width="1.2"/>
    </marker></defs><defs><marker xmlns="http://www.w3.org/2000/svg" id="u08v3is_fix_dim-print-0-27-marker-end" markerWidth="9.448" markerHeight="7.873" refX="6" refY="2.5" orient="auto" viewBox="0 0 6 5" markerUnits="userSpaceOnUse">
      <path d="M0 0 L0 5 L6 2.5 Z" fill="#657781" stroke="none" stroke-width="1.2"/>
    </marker></defs><g transform="translate(-6.161 -6.161) scale(0.423)"><g transform="matrix(1 0 0 1 6 -71)"><line xmlns="http://www.w3.org/2000/svg" x1="73" y1="350" x2="73" y2="440" stroke="rgb(101, 119, 129)" stroke-width="1.653" marker-start="url(#u08v3is_fix_dimL-print-0-27-marker-start)" marker-end="url(#u08v3is_fix_dim-print-0-27-marker-end)" fill="rgb(0, 0, 0)" stroke-linecap="butt" stroke-linejoin="miter" stroke-dasharray="none" fill-opacity="1" stroke-opacity="1" opacity="1" marker-mid="none" data-source-geometry="27"/></g></g><g transform="translate(-6.161 -6.161) scale(0.423)"><g transform="matrix(1 0 0 1 6 -71)"><line xmlns="http://www.w3.org/2000/svg" x1="645" y1="200" x2="655" y2="200" stroke="rgb(101, 119, 129)" stroke-width="1.181" fill="rgb(0, 0, 0)" stroke-linecap="butt" stroke-linejoin="miter" stroke-dasharray="none" fill-opacity="1" stroke-opacity="1" opacity="1" marker-start="none" marker-mid="none" marker-end="none" data-source-geometry="29"/></g></g><g transform="translate(-6.161 -6.161) scale(0.423)"><g transform="matrix(1 0 0 1 6 -71)"><line xmlns="http://www.w3.org/2000/svg" x1="645" y1="440" x2="655" y2="440" stroke="rgb(101, 119, 129)" stroke-width="1.181" fill="rgb(0, 0, 0)" stroke-linecap="butt" stroke-linejoin="miter" stroke-dasharray="none" fill-opacity="1" stroke-opacity="1" opacity="1" marker-start="none" marker-mid="none" marker-end="none" data-source-geometry="30"/></g></g><defs><marker xmlns="http://www.w3.org/2000/svg" id="u08v3is_fix_dimL-print-0-31-marker-start" markerWidth="9.448" markerHeight="7.873" refX="6" refY="2.5" orient="auto-start-reverse" viewBox="0 0 6 5" markerUnits="userSpaceOnUse">
      <path d="M0 0 L0 5 L6 2.5 Z" fill="#657781" stroke="none" stroke-width="1.2"/>
    </marker></defs><defs><marker xmlns="http://www.w3.org/2000/svg" id="u08v3is_fix_dim-print-0-31-marker-end" markerWidth="9.448" markerHeight="7.873" refX="6" refY="2.5" orient="auto" viewBox="0 0 6 5" markerUnits="userSpaceOnUse">
      <path d="M0 0 L0 5 L6 2.5 Z" fill="#657781" stroke="none" stroke-width="1.2"/>
    </marker></defs><g transform="translate(-6.161 -6.161) scale(0.423)"><g transform="matrix(1 0 0 1 6 -71)"><line xmlns="http://www.w3.org/2000/svg" x1="650" y1="200" x2="650" y2="440" stroke="rgb(101, 119, 129)" stroke-width="1.653" marker-start="url(#u08v3is_fix_dimL-print-0-31-marker-start)" marker-end="url(#u08v3is_fix_dim-print-0-31-marker-end)" fill="rgb(0, 0, 0)" stroke-linecap="butt" stroke-linejoin="miter" stroke-dasharray="none" fill-opacity="1" stroke-opacity="1" opacity="1" marker-mid="none" data-source-geometry="31"/></g></g><g transform="translate(-6.161 -6.161) scale(0.423)"><g transform="matrix(1 0 0 1 6 -71)"><line xmlns="http://www.w3.org/2000/svg" x1="110" y1="476" x2="110" y2="486" stroke="rgb(101, 119, 129)" stroke-width="1.181" fill="rgb(0, 0, 0)" stroke-linecap="butt" stroke-linejoin="miter" stroke-dasharray="none" fill-opacity="1" stroke-opacity="1" opacity="1" marker-start="none" marker-mid="none" marker-end="none" data-source-geometry="33"/></g></g><g transform="translate(-6.161 -6.161) scale(0.423)"><g transform="matrix(1 0 0 1 6 -71)"><line xmlns="http://www.w3.org/2000/svg" x1="490" y1="476" x2="490" y2="486" stroke="rgb(101, 119, 129)" stroke-width="1.181" fill="rgb(0, 0, 0)" stroke-linecap="butt" stroke-linejoin="miter" stroke-dasharray="none" fill-opacity="1" stroke-opacity="1" opacity="1" marker-start="none" marker-mid="none" marker-end="none" data-source-geometry="34"/></g></g><defs><marker xmlns="http://www.w3.org/2000/svg" id="u08v3is_fix_dimL-print-0-35-marker-start" markerWidth="9.448" markerHeight="7.873" refX="6" refY="2.5" orient="auto-start-reverse" viewBox="0 0 6 5" markerUnits="userSpaceOnUse">
      <path d="M0 0 L0 5 L6 2.5 Z" fill="#657781" stroke="none" stroke-width="1.2"/>
    </marker></defs><defs><marker xmlns="http://www.w3.org/2000/svg" id="u08v3is_fix_dim-print-0-35-marker-end" markerWidth="9.448" markerHeight="7.873" refX="6" refY="2.5" orient="auto" viewBox="0 0 6 5" markerUnits="userSpaceOnUse">
      <path d="M0 0 L0 5 L6 2.5 Z" fill="#657781" stroke="none" stroke-width="1.2"/>
    </marker></defs><g transform="translate(-6.161 -6.161) scale(0.423)"><g transform="matrix(1 0 0 1 6 -71)"><line xmlns="http://www.w3.org/2000/svg" x1="110" y1="481" x2="490" y2="481" stroke="rgb(101, 119, 129)" stroke-width="1.653" marker-start="url(#u08v3is_fix_dimL-print-0-35-marker-start)" marker-end="url(#u08v3is_fix_dim-print-0-35-marker-end)" fill="rgb(0, 0, 0)" stroke-linecap="butt" stroke-linejoin="miter" stroke-dasharray="none" fill-opacity="1" stroke-opacity="1" opacity="1" marker-mid="none" data-source-geometry="35"/></g></g><g transform="translate(-6.161 -6.161) scale(0.423)"><g transform="matrix(1 0 0 1 6 -71)"><rect xmlns="http://www.w3.org/2000/svg" x="96" y="95" width="409" height="362" fill="none" stroke="rgb(38, 55, 70)" stroke-width="2.48" stroke-dasharray="6px, 4px" data-mf1-role="control-volume" stroke-linecap="butt" stroke-linejoin="miter" fill-opacity="1" stroke-opacity="1" opacity="1" marker-start="none" marker-mid="none" marker-end="none" data-source-geometry="37"/></g></g><g transform="translate(29.563 18.818)"><text data-source-text="1" x="0" y="0" text-anchor="middle" font-size="9.5" font-weight="400" fill="rgb(38, 55, 70)">Q<tspan font-size="9" font-weight="400" font-style="normal" fill="rgb(38, 55, 70)" baseline-shift="-2">in</tspan> = 22 L/s</text></g><g transform="translate(131.855 45.066)"><text data-source-text="3" x="0" y="0" text-anchor="middle" font-size="9.5" font-weight="400" fill="rgb(38, 55, 70)">ciljana razina h₁</text></g><g transform="translate(227.704 83.169)"><text data-source-text="9" x="0" y="0" text-anchor="start" font-size="9" font-weight="400" fill="rgb(38, 55, 70)">h₁ = 1,20 m</text></g><g transform="translate(153.024 88.672)"><text data-source-text="5" x="0" y="0" text-anchor="middle" font-size="9" font-weight="400" fill="rgb(38, 55, 70)">budući porast ΔV</text></g><g transform="translate(153.024 99.716)"><text data-source-text="6" x="0" y="0" text-anchor="middle" font-size="9" font-weight="400" fill="rgb(38, 55, 70)">iznad sadašnje vode</text></g><g transform="translate(144.556 114.571)"><text data-source-text="4" x="0" y="0" text-anchor="middle" font-size="9.5" font-weight="400" fill="rgb(38, 55, 70)">početna razina h₀</text></g><g transform="translate(235.579 128.045)"><text data-source-text="2" x="0" y="0" text-anchor="middle" font-size="9.5" font-weight="400" fill="rgb(38, 55, 70)">Q<tspan font-size="9" font-weight="400" font-style="normal" fill="rgb(38, 55, 70)" baseline-shift="-2">out</tspan> = 8 L/s</text></g><g transform="translate(140.323 134.819)"><text data-source-text="7" x="0" y="0" text-anchor="middle" font-size="9" font-weight="400" fill="rgb(38, 55, 70)">voda, ρ = 998 kg/m³</text></g><g transform="translate(4 161.491)"><text data-source-text="8" x="0" y="0" text-anchor="start" font-size="9" font-weight="400" fill="rgb(38, 55, 70)">h₀ = 0,45 m</text></g><g transform="translate(138.841 186.035)"><text data-source-text="10" x="0" y="0" text-anchor="middle" font-size="9" font-weight="400" fill="rgb(38, 55, 70)">L</text></g></g></svg>
