<svg xmlns="http://www.w3.org/2000/svg" width="447.874pt" height="148.268pt" viewBox="0 0 447.874 148.268" role="img"><title>Skice vježbi kompresibilnog idealnog toka</title><defs>
    <pattern xmlns="http://www.w3.org/2000/svg" id="u09kvs_hatch" width="7" height="7" patternUnits="userSpaceOnUse" patternTransform="rotate(45)">
      <line x1="0" y1="0" x2="0" y2="7" stroke="#657781" stroke-width="1.8"/>
    </pattern>
    <marker xmlns="http://www.w3.org/2000/svg" id="u09kvs_v" markerWidth="7" markerHeight="6" refX="7" refY="3" orient="auto">
      <path d="M0 0 L7 3 L0 6 Z" fill="#356b83"/>
    </marker>
    <marker xmlns="http://www.w3.org/2000/svg" id="u09kvs_dim" markerWidth="6" markerHeight="5" refX="6" refY="2.5" orient="auto-start-reverse">
      <path d="M0 0 L6 2.5 L0 5 Z" fill="#657781"/>
    </marker>
    <marker xmlns="http://www.w3.org/2000/svg" id="u09kvs_dimSmall" markerWidth="3" markerHeight="3" refX="3" refY="1.5" orient="auto-start-reverse">
      <path d="M0 0 L3 1.5 L0 3 Z" fill="#356b83"/>
    </marker>


      <marker xmlns="http://www.w3.org/2000/svg" id="u09kvs_sound" markerWidth="7" markerHeight="6" refX="7" refY="3" orient="auto">
        <path d="M0 0 L7 3 L0 6 Z" fill="#356b83"/>
      </marker>

</defs><g font-family="Arial, Liberation Sans, sans-serif"><g transform="translate(4 13.5)"><text data-source-text="15" x="0" y="0" text-anchor="start" font-size="9.5" font-weight="600" fill="rgb(38, 55, 70)">Z3</text></g><g transform="translate(28 13.5)"><text data-source-text="16" x="0" y="0" text-anchor="start" font-size="9.5" font-weight="600" fill="rgb(38, 55, 70)">Dva smjera akustičkog mjerenja</text></g><g transform="translate(108.469 28.5)"><text data-source-text="21" x="0" y="0" text-anchor="middle" font-size="9.5" font-weight="400" fill="rgb(38, 55, 70)">v</text></g><g transform="translate(-31.754 -159.853) scale(0.559)"><g transform="matrix(1 0 0 1 28 286)"><rect xmlns="http://www.w3.org/2000/svg" x="36" y="91" width="374" height="89" rx="0" fill="rgb(220, 235, 241)" stroke="none" stroke-width="1.2px" stroke-linecap="butt" stroke-linejoin="miter" stroke-dasharray="none" fill-opacity="1" stroke-opacity="1" opacity="1" marker-start="none" marker-mid="none" marker-end="none" data-source-geometry="33"/></g></g><g transform="translate(-31.754 -159.853) scale(0.559)"><g transform="matrix(1 0 0 1 28 286)"><rect xmlns="http://www.w3.org/2000/svg" x="36" y="84" width="374" height="7" rx="0" fill="url(#u09kvs_hatch)" stroke="rgb(58, 74, 86)" stroke-width="1.253" stroke-linecap="butt" stroke-linejoin="miter" stroke-dasharray="none" fill-opacity="1" stroke-opacity="1" opacity="1" marker-start="none" marker-mid="none" marker-end="none" data-source-geometry="34"/></g></g><g transform="translate(-31.754 -159.853) scale(0.559)"><g transform="matrix(1 0 0 1 28 286)"><rect xmlns="http://www.w3.org/2000/svg" x="36" y="180" width="374" height="7" rx="0" fill="url(#u09kvs_hatch)" stroke="rgb(58, 74, 86)" stroke-width="1.253" stroke-linecap="butt" stroke-linejoin="miter" stroke-dasharray="none" fill-opacity="1" stroke-opacity="1" opacity="1" marker-start="none" marker-mid="none" marker-end="none" data-source-geometry="35"/></g></g><g transform="translate(-31.754 -159.853) scale(0.559)"><g transform="matrix(1 0 0 1 28 286)"><line xmlns="http://www.w3.org/2000/svg" x1="90" y1="91" x2="90" y2="180" stroke="rgb(53, 107, 131)" stroke-width="1.044" stroke-dasharray="3px, 4px" fill="rgb(58, 74, 86)" stroke-linecap="butt" stroke-linejoin="miter" fill-opacity="1" stroke-opacity="1" opacity="1" marker-start="none" marker-mid="none" marker-end="none" data-source-geometry="36"/></g></g><g transform="translate(-31.754 -159.853) scale(0.559)"><g transform="matrix(1 0 0 1 28 286)"><line xmlns="http://www.w3.org/2000/svg" x1="350" y1="91" x2="350" y2="180" stroke="rgb(53, 107, 131)" stroke-width="1.044" stroke-dasharray="3px, 4px" fill="rgb(58, 74, 86)" stroke-linecap="butt" stroke-linejoin="miter" fill-opacity="1" stroke-opacity="1" opacity="1" marker-start="none" marker-mid="none" marker-end="none" data-source-geometry="38"/></g></g><defs><marker xmlns="http://www.w3.org/2000/svg" id="u09kvs_sound-print-2-40-marker-end" markerWidth="7.16" markerHeight="6.137" refX="7" refY="3" orient="auto" viewBox="0 0 7 6" markerUnits="userSpaceOnUse">
        <path d="M0 0 L7 3 L0 6 Z" fill="#356b83"/>
      </marker></defs><g transform="translate(-31.754 -159.853) scale(0.559)"><g transform="matrix(1 0 0 1 28 286)"><path xmlns="http://www.w3.org/2000/svg" d="M106 123 L334 123" fill="none" stroke="rgb(53, 107, 131)" stroke-width="2.402" marker-end="url(#u09kvs_sound-print-2-40-marker-end)" stroke-linecap="butt" stroke-linejoin="miter" stroke-dasharray="none" fill-opacity="1" stroke-opacity="1" opacity="1" marker-start="none" marker-mid="none" data-source-geometry="40"/></g></g><defs><marker xmlns="http://www.w3.org/2000/svg" id="u09kvs_sound-print-2-42-marker-end" markerWidth="7.16" markerHeight="6.137" refX="7" refY="3" orient="auto" viewBox="0 0 7 6" markerUnits="userSpaceOnUse">
        <path d="M0 0 L7 3 L0 6 Z" fill="#356b83"/>
      </marker></defs><g transform="translate(-31.754 -159.853) scale(0.559)"><g transform="matrix(1 0 0 1 28 286)"><path xmlns="http://www.w3.org/2000/svg" d="M334 164 L106 164" fill="none" stroke="rgb(53, 107, 131)" stroke-width="2.402" marker-end="url(#u09kvs_sound-print-2-42-marker-end)" stroke-linecap="butt" stroke-linejoin="miter" stroke-dasharray="none" fill-opacity="1" stroke-opacity="1" opacity="1" marker-start="none" marker-mid="none" data-source-geometry="42"/></g></g><defs><marker xmlns="http://www.w3.org/2000/svg" id="u09kvs_v-print-2-44-marker-end" markerWidth="7.16" markerHeight="6.137" refX="7" refY="3" orient="auto" viewBox="0 0 7 6" markerUnits="userSpaceOnUse">
      <path d="M0 0 L7 3 L0 6 Z" fill="#356b83"/>
    </marker></defs><g transform="translate(-31.754 -159.853) scale(0.559)"><g transform="matrix(1 0 0 1 28 286)"><path xmlns="http://www.w3.org/2000/svg" d="M167 61 L263 61" fill="none" stroke="rgb(53, 107, 131)" stroke-width="2.402" marker-end="url(#u09kvs_v-print-2-44-marker-end)" stroke-linecap="butt" stroke-linejoin="miter" stroke-dasharray="none" fill-opacity="1" stroke-opacity="1" opacity="1" marker-start="none" marker-mid="none" data-source-geometry="44"/></g></g><g transform="translate(-31.754 -159.853) scale(0.559)"><g transform="matrix(1 0 0 1 28 286)"><line xmlns="http://www.w3.org/2000/svg" x1="90" y1="187" x2="90" y2="218" stroke="rgb(101, 119, 129)" stroke-width="1.044" fill="rgb(58, 74, 86)" stroke-linecap="butt" stroke-linejoin="miter" stroke-dasharray="none" fill-opacity="1" stroke-opacity="1" opacity="1" marker-start="none" marker-mid="none" marker-end="none" data-source-geometry="46"/></g></g><g transform="translate(-31.754 -159.853) scale(0.559)"><g transform="matrix(1 0 0 1 28 286)"><line xmlns="http://www.w3.org/2000/svg" x1="350" y1="187" x2="350" y2="218" stroke="rgb(101, 119, 129)" stroke-width="1.044" fill="rgb(58, 74, 86)" stroke-linecap="butt" stroke-linejoin="miter" stroke-dasharray="none" fill-opacity="1" stroke-opacity="1" opacity="1" marker-start="none" marker-mid="none" marker-end="none" data-source-geometry="47"/></g></g><g transform="translate(-31.754 -159.853) scale(0.559)"><g transform="matrix(1 0 0 1 28 286)"><line xmlns="http://www.w3.org/2000/svg" x1="90" y1="209" x2="90" y2="219" stroke="rgb(101, 119, 129)" stroke-width="1.253" fill="rgb(58, 74, 86)" stroke-linecap="butt" stroke-linejoin="miter" stroke-dasharray="none" fill-opacity="1" stroke-opacity="1" opacity="1" marker-start="none" marker-mid="none" marker-end="none" data-source-geometry="48"/></g></g><g transform="translate(-31.754 -159.853) scale(0.559)"><g transform="matrix(1 0 0 1 28 286)"><line xmlns="http://www.w3.org/2000/svg" x1="350" y1="209" x2="350" y2="219" stroke="rgb(101, 119, 129)" stroke-width="1.253" fill="rgb(58, 74, 86)" stroke-linecap="butt" stroke-linejoin="miter" stroke-dasharray="none" fill-opacity="1" stroke-opacity="1" opacity="1" marker-start="none" marker-mid="none" marker-end="none" data-source-geometry="49"/></g></g><defs><marker xmlns="http://www.w3.org/2000/svg" id="u09kvs_dim-print-2-50-marker-start" markerWidth="7.16" markerHeight="5.967" refX="6" refY="2.5" orient="auto-start-reverse" viewBox="0 0 6 5" markerUnits="userSpaceOnUse">
      <path d="M0 0 L6 2.5 L0 5 Z" fill="#657781"/>
    </marker></defs><defs><marker xmlns="http://www.w3.org/2000/svg" id="u09kvs_dim-print-2-50-marker-end" markerWidth="7.16" markerHeight="5.967" refX="6" refY="2.5" orient="auto-start-reverse" viewBox="0 0 6 5" markerUnits="userSpaceOnUse">
      <path d="M0 0 L6 2.5 L0 5 Z" fill="#657781"/>
    </marker></defs><g transform="translate(-31.754 -159.853) scale(0.559)"><g transform="matrix(1 0 0 1 28 286)"><path xmlns="http://www.w3.org/2000/svg" d="M90 214 L350 214" fill="none" stroke="rgb(101, 119, 129)" stroke-width="1.462" marker-start="url(#u09kvs_dim-print-2-50-marker-start)" marker-end="url(#u09kvs_dim-print-2-50-marker-end)" stroke-linecap="butt" stroke-linejoin="miter" stroke-dasharray="none" fill-opacity="1" stroke-opacity="1" opacity="1" marker-mid="none" data-source-geometry="50"/></g></g><g transform="translate(34.167 43.497)"><text data-source-text="17" x="0" y="0" text-anchor="middle" font-size="9.5" font-weight="600" fill="rgb(38, 55, 70)">A</text></g><g transform="translate(179.418 43.497)"><text data-source-text="18" x="0" y="0" text-anchor="middle" font-size="9.5" font-weight="600" fill="rgb(38, 55, 70)">B</text></g><g transform="translate(106.793 62.491)"><text data-source-text="19" x="0" y="0" text-anchor="middle" font-size="9.5" font-weight="400" fill="rgb(38, 55, 70)">tAB = 3,00 ms</text></g><g transform="translate(106.793 85.396)"><text data-source-text="20" x="0" y="0" text-anchor="middle" font-size="9.5" font-weight="400" fill="rgb(38, 55, 70)">tBA = 4,00 ms</text></g><g transform="translate(108.469 138.768)"><text data-source-text="22" x="0" y="0" text-anchor="middle" font-size="9" font-weight="400" fill="rgb(38, 55, 70)">L = 1,20 m</text></g><g transform="translate(230.937 0)"><g transform="translate(4 13.5)"><text data-source-text="23" x="0" y="0" text-anchor="start" font-size="9.5" font-weight="600" fill="rgb(38, 55, 70)">Z4</text></g><g transform="translate(28 13.5)"><text data-source-text="24" x="0" y="0" text-anchor="start" font-size="9.5" font-weight="600" fill="rgb(38, 55, 70)">Protutlak i izlazni tlak</text></g><g transform="translate(-281.453 -170.554) scale(0.561)"><g transform="matrix(1 0 0 1 486 286)"><path xmlns="http://www.w3.org/2000/svg" d="M38 97 H120 C185 97 223 125 300 125 L300 161 C223 161 185 189 120 189 H38 Z" fill="rgb(220, 235, 241)" stroke="none" stroke-width="1.8px" stroke-linecap="butt" stroke-linejoin="miter" stroke-dasharray="none" fill-opacity="1" stroke-opacity="1" opacity="1" marker-start="none" marker-mid="none" marker-end="none" data-source-geometry="56"/></g></g><g transform="translate(-281.453 -170.554) scale(0.561)"><g transform="matrix(1 0 0 1 486 286)"><path xmlns="http://www.w3.org/2000/svg" d="M38 97 H120 C185 97 223 125 300 125 L300 118 C223 118 185 90 120 90 H38 Z" fill="url(#u09kvs_hatch)" stroke="rgb(58, 74, 86)" stroke-width="1.872" stroke-linecap="butt" stroke-linejoin="miter" stroke-dasharray="none" fill-opacity="1" stroke-opacity="1" opacity="1" marker-start="none" marker-mid="none" marker-end="none" data-source-geometry="57"/></g></g><g transform="translate(-281.453 -170.554) scale(0.561)"><g transform="matrix(1 0 0 1 486 286)"><path xmlns="http://www.w3.org/2000/svg" d="M38 189 H120 C185 189 223 161 300 161 L300 168 C223 168 185 196 120 196 H38 Z" fill="url(#u09kvs_hatch)" stroke="rgb(58, 74, 86)" stroke-width="1.872" stroke-linecap="butt" stroke-linejoin="miter" stroke-dasharray="none" fill-opacity="1" stroke-opacity="1" opacity="1" marker-start="none" marker-mid="none" marker-end="none" data-source-geometry="58"/></g></g><g transform="translate(-281.453 -170.554) scale(0.561)"><g transform="matrix(1 0 0 1 486 286)"><line xmlns="http://www.w3.org/2000/svg" x1="300" y1="118" x2="300" y2="168" stroke="rgb(53, 107, 131)" stroke-width="1.352" stroke-dasharray="4px, 4px" fill="rgb(58, 74, 86)" stroke-linecap="butt" stroke-linejoin="miter" fill-opacity="1" stroke-opacity="1" opacity="1" marker-start="none" marker-mid="none" marker-end="none" data-source-geometry="59"/></g></g><defs><marker xmlns="http://www.w3.org/2000/svg" id="u09kvs_v-print-3-60-marker-end" markerWidth="7.133" markerHeight="6.114" refX="7" refY="3" orient="auto" viewBox="0 0 7 6" markerUnits="userSpaceOnUse">
      <path d="M0 0 L7 3 L0 6 Z" fill="#356b83"/>
    </marker></defs><g transform="translate(-281.453 -170.554) scale(0.561)"><g transform="matrix(1 0 0 1 486 286)"><path xmlns="http://www.w3.org/2000/svg" d="M61 143 L102 143" fill="none" stroke="rgb(53, 107, 131)" stroke-width="2.392" marker-end="url(#u09kvs_v-print-3-60-marker-end)" stroke-linecap="butt" stroke-linejoin="miter" stroke-dasharray="none" fill-opacity="1" stroke-opacity="1" opacity="1" marker-start="none" marker-mid="none" data-source-geometry="60"/></g></g><defs><marker xmlns="http://www.w3.org/2000/svg" id="u09kvs_v-print-3-62-marker-end" markerWidth="7.133" markerHeight="6.114" refX="7" refY="3" orient="auto" viewBox="0 0 7 6" markerUnits="userSpaceOnUse">
      <path d="M0 0 L7 3 L0 6 Z" fill="#356b83"/>
    </marker></defs><g transform="translate(-281.453 -170.554) scale(0.561)"><g transform="matrix(1 0 0 1 486 286)"><path xmlns="http://www.w3.org/2000/svg" d="M262 143 L339 143" fill="none" stroke="rgb(53, 107, 131)" stroke-width="2.392" marker-end="url(#u09kvs_v-print-3-62-marker-end)" stroke-linecap="butt" stroke-linejoin="miter" stroke-dasharray="none" fill-opacity="1" stroke-opacity="1" opacity="1" marker-start="none" marker-mid="none" data-source-geometry="62"/></g></g><g transform="translate(4 26.291)"><text data-source-text="25" x="0" y="0" text-anchor="start" font-size="9.5" font-weight="400" fill="rgb(38, 55, 70)">p₀,M = 7,00 bar</text></g><g transform="translate(124.574 26.291)"><text data-source-text="26" x="0" y="0" text-anchor="start" font-size="9.5" font-weight="400" fill="rgb(38, 55, 70)">pₐₜₘ = 1,00 bar(abs)</text></g><g transform="translate(159.345 47.041)"><text data-source-text="29" x="0" y="0" text-anchor="middle" font-size="9.5" font-weight="400" fill="rgb(38, 55, 70)">e: pₑ, Maₑ</text></g><g transform="translate(36.807 64.986)"><text data-source-text="27" x="0" y="0" text-anchor="middle" font-size="9.5" font-weight="400" fill="rgb(38, 55, 70)">v</text></g><g transform="translate(189.628 86.858)"><text data-source-text="30" x="0" y="0" text-anchor="middle" font-size="9.5" font-weight="400" fill="rgb(38, 55, 70)">pᵦ,M (bar):</text></g><g transform="translate(20.264 89.101)"><text data-source-text="28" x="0" y="0" text-anchor="start" font-size="9.5" font-weight="400" fill="rgb(38, 55, 70)">iz mirne komore</text></g><g transform="translate(181.854 100.513)"><text data-source-text="31" x="0" y="0" text-anchor="middle" font-size="9.5" font-weight="400" fill="rgb(38, 55, 70)">I: 4,00; II: 3,00</text></g><g transform="translate(108.469 119.013)"><text data-source-text="32" x="0" y="0" text-anchor="middle" font-size="9" font-weight="400" fill="rgb(38, 55, 70)">Vanjski tok nije prikazan; izlaz je najmanji presjek.</text></g></g></g></svg>
